G04 #@! TF.GenerationSoftware,KiCad,Pcbnew,(5.0.0)*
G04 #@! TF.CreationDate,2018-11-07T01:06:06+09:00*
G04 #@! TF.ProjectId,mbc1cartridge_test,6D6263316361727472696467655F7465,rev?*
G04 #@! TF.SameCoordinates,Original*
G04 #@! TF.FileFunction,Copper,L2,Bot,Signal*
G04 #@! TF.FilePolarity,Positive*
%FSLAX46Y46*%
G04 Gerber Fmt 4.6, Leading zero omitted, Abs format (unit mm)*
G04 Created by KiCad (PCBNEW (5.0.0)) date 11/07/18 01:06:06*
%MOMM*%
%LPD*%
G01*
G04 APERTURE LIST*
G04 #@! TA.AperFunction,ViaPad*
%ADD10C,0.800000*%
G04 #@! TD*
G04 #@! TA.AperFunction,Conductor*
%ADD11C,0.300000*%
G04 #@! TD*
G04 #@! TA.AperFunction,Conductor*
%ADD12C,0.250000*%
G04 #@! TD*
G04 #@! TA.AperFunction,Conductor*
%ADD13C,0.254000*%
G04 #@! TD*
G04 #@! TA.AperFunction,NonConductor*
%ADD14C,0.254000*%
G04 #@! TD*
G04 APERTURE END LIST*
D10*
G04 #@! TO.N,*
X103820300Y-86258700D03*
X91220800Y-90748400D03*
X70482300Y-90087500D03*
X96386900Y-86750000D03*
X99909200Y-101715000D03*
X67833400Y-107249300D03*
X106084100Y-90285000D03*
X78373500Y-103954500D03*
X75111500Y-95041400D03*
X79160400Y-104741400D03*
X76491500Y-93588600D03*
X76562200Y-95288800D03*
X79881100Y-105462100D03*
X77894200Y-102838400D03*
X75208200Y-96642700D03*
X81331800Y-105543900D03*
X77140000Y-88464200D03*
X82750000Y-105543300D03*
X78232800Y-88464200D03*
X89193200Y-89785200D03*
X84296600Y-105560400D03*
X84333400Y-104544200D03*
X79265900Y-88464200D03*
X80274500Y-103555400D03*
X76417100Y-92250000D03*
X100621800Y-95365000D03*
X66226100Y-87867600D03*
X89000000Y-105522900D03*
X91529200Y-105556900D03*
X70470800Y-87768700D03*
X104909900Y-94141000D03*
X92681100Y-104966400D03*
X104049800Y-93467600D03*
X93406400Y-104187200D03*
X101301600Y-90691300D03*
X94880900Y-101101400D03*
X93353900Y-91796100D03*
X95307400Y-102605600D03*
X92686500Y-90250000D03*
X91717700Y-92316100D03*
X97536200Y-103918600D03*
X101969200Y-107243900D03*
X73611900Y-103299700D03*
X103750000Y-107209200D03*
X100936900Y-88505300D03*
X104786600Y-104591600D03*
X104776300Y-107241500D03*
X76603600Y-90365200D03*
X61622000Y-101120800D03*
X106153400Y-107212900D03*
X87770500Y-87208200D03*
X100617100Y-94310300D03*
X104948000Y-97905000D03*
X73170100Y-95623400D03*
X68599600Y-96691300D03*
X104217800Y-98902400D03*
X73203500Y-96983500D03*
X70810000Y-97263800D03*
X104941000Y-101055500D03*
X65162300Y-100497900D03*
X102375100Y-101878800D03*
X73817900Y-98890300D03*
X103820300Y-51258700D03*
X91220800Y-55748400D03*
X70482300Y-55087500D03*
X96386900Y-51750000D03*
X99909200Y-66715000D03*
X67833400Y-72249300D03*
X106084100Y-55285000D03*
X78373500Y-68954500D03*
X75111500Y-60041400D03*
X79160400Y-69741400D03*
X76491500Y-58588600D03*
X76562200Y-60288800D03*
X79881100Y-70462100D03*
X77894200Y-67838400D03*
X75208200Y-61642700D03*
X81331800Y-70543900D03*
X77140000Y-53464200D03*
X82750000Y-70543300D03*
X78232800Y-53464200D03*
X89193200Y-54785200D03*
X84296600Y-70560400D03*
X84333400Y-69544200D03*
X79265900Y-53464200D03*
X80274500Y-68555400D03*
X76417100Y-57250000D03*
X100621800Y-60365000D03*
X66226100Y-52867600D03*
X89000000Y-70522900D03*
X91529200Y-70556900D03*
X70470800Y-52768700D03*
X104909900Y-59141000D03*
X92681100Y-69966400D03*
X104049800Y-58467600D03*
X93406400Y-69187200D03*
X101301600Y-55691300D03*
X94880900Y-66101400D03*
X93353900Y-56796100D03*
X95307400Y-67605600D03*
X92686500Y-55250000D03*
X91717700Y-57316100D03*
X97536200Y-68918600D03*
X101969200Y-72243900D03*
X73611900Y-68299700D03*
X103750000Y-72209200D03*
X100936900Y-53505300D03*
X104786600Y-69591600D03*
X104776300Y-72241500D03*
X76603600Y-55365200D03*
X61622000Y-66120800D03*
X106153400Y-72212900D03*
X87770500Y-52208200D03*
X100617100Y-59310300D03*
X104948000Y-62905000D03*
X73170100Y-60623400D03*
X68599600Y-61691300D03*
X104217800Y-63902400D03*
X73203500Y-61983500D03*
X70810000Y-62263800D03*
X104941000Y-66055500D03*
X65162300Y-65497900D03*
X102375100Y-66878800D03*
X73817900Y-63890300D03*
X153820300Y-121258700D03*
X141220800Y-125748400D03*
X120482300Y-125087500D03*
X146386900Y-121750000D03*
X149909200Y-136715000D03*
X117833400Y-142249300D03*
X156084100Y-125285000D03*
X128373500Y-138954500D03*
X125111500Y-130041400D03*
X129160400Y-139741400D03*
X126491500Y-128588600D03*
X126562200Y-130288800D03*
X129881100Y-140462100D03*
X127894200Y-137838400D03*
X125208200Y-131642700D03*
X131331800Y-140543900D03*
X127140000Y-123464200D03*
X132750000Y-140543300D03*
X128232800Y-123464200D03*
X139193200Y-124785200D03*
X134296600Y-140560400D03*
X134333400Y-139544200D03*
X129265900Y-123464200D03*
X130274500Y-138555400D03*
X126417100Y-127250000D03*
X150621800Y-130365000D03*
X116226100Y-122867600D03*
X139000000Y-140522900D03*
X141529200Y-140556900D03*
X120470800Y-122768700D03*
X154909900Y-129141000D03*
X142681100Y-139966400D03*
X154049800Y-128467600D03*
X143406400Y-139187200D03*
X151301600Y-125691300D03*
X144880900Y-136101400D03*
X143353900Y-126796100D03*
X145307400Y-137605600D03*
X142686500Y-125250000D03*
X141717700Y-127316100D03*
X147536200Y-138918600D03*
X151969200Y-142243900D03*
X123611900Y-138299700D03*
X153750000Y-142209200D03*
X150936900Y-123505300D03*
X154786600Y-139591600D03*
X154776300Y-142241500D03*
X126603600Y-125365200D03*
X111622000Y-136120800D03*
X156153400Y-142212900D03*
X137770500Y-122208200D03*
X150617100Y-129310300D03*
X154948000Y-132905000D03*
X123170100Y-130623400D03*
X118599600Y-131691300D03*
X154217800Y-133902400D03*
X123203500Y-131983500D03*
X120810000Y-132263800D03*
X154941000Y-136055500D03*
X115162300Y-135497900D03*
X152375100Y-136878800D03*
X123817900Y-133890300D03*
X153820300Y-86258700D03*
X141220800Y-90748400D03*
X120482300Y-90087500D03*
X146386900Y-86750000D03*
X149909200Y-101715000D03*
X117833400Y-107249300D03*
X156084100Y-90285000D03*
X128373500Y-103954500D03*
X125111500Y-95041400D03*
X129160400Y-104741400D03*
X126491500Y-93588600D03*
X126562200Y-95288800D03*
X129881100Y-105462100D03*
X127894200Y-102838400D03*
X125208200Y-96642700D03*
X131331800Y-105543900D03*
X127140000Y-88464200D03*
X132750000Y-105543300D03*
X128232800Y-88464200D03*
X139193200Y-89785200D03*
X134296600Y-105560400D03*
X134333400Y-104544200D03*
X129265900Y-88464200D03*
X130274500Y-103555400D03*
X126417100Y-92250000D03*
X150621800Y-95365000D03*
X116226100Y-87867600D03*
X139000000Y-105522900D03*
X141529200Y-105556900D03*
X120470800Y-87768700D03*
X154909900Y-94141000D03*
X142681100Y-104966400D03*
X154049800Y-93467600D03*
X143406400Y-104187200D03*
X151301600Y-90691300D03*
X144880900Y-101101400D03*
X143353900Y-91796100D03*
X145307400Y-102605600D03*
X142686500Y-90250000D03*
X141717700Y-92316100D03*
X147536200Y-103918600D03*
X151969200Y-107243900D03*
X123611900Y-103299700D03*
X153750000Y-107209200D03*
X150936900Y-88505300D03*
X154786600Y-104591600D03*
X154776300Y-107241500D03*
X126603600Y-90365200D03*
X111622000Y-101120800D03*
X156153400Y-107212900D03*
X137770500Y-87208200D03*
X150617100Y-94310300D03*
X154948000Y-97905000D03*
X123170100Y-95623400D03*
X118599600Y-96691300D03*
X154217800Y-98902400D03*
X123203500Y-96983500D03*
X120810000Y-97263800D03*
X154941000Y-101055500D03*
X115162300Y-100497900D03*
X152375100Y-101878800D03*
X123817900Y-98890300D03*
X153820300Y-51258700D03*
X141220800Y-55748400D03*
X120482300Y-55087500D03*
X146386900Y-51750000D03*
X149909200Y-66715000D03*
X117833400Y-72249300D03*
X156084100Y-55285000D03*
X128373500Y-68954500D03*
X125111500Y-60041400D03*
X129160400Y-69741400D03*
X126491500Y-58588600D03*
X126562200Y-60288800D03*
X129881100Y-70462100D03*
X127894200Y-67838400D03*
X125208200Y-61642700D03*
X131331800Y-70543900D03*
X127140000Y-53464200D03*
X132750000Y-70543300D03*
X128232800Y-53464200D03*
X139193200Y-54785200D03*
X134296600Y-70560400D03*
X134333400Y-69544200D03*
X129265900Y-53464200D03*
X130274500Y-68555400D03*
X126417100Y-57250000D03*
X150621800Y-60365000D03*
X116226100Y-52867600D03*
X139000000Y-70522900D03*
X141529200Y-70556900D03*
X120470800Y-52768700D03*
X154909900Y-59141000D03*
X142681100Y-69966400D03*
X154049800Y-58467600D03*
X143406400Y-69187200D03*
X151301600Y-55691300D03*
X144880900Y-66101400D03*
X143353900Y-56796100D03*
X145307400Y-67605600D03*
X142686500Y-55250000D03*
X141717700Y-57316100D03*
X147536200Y-68918600D03*
X151969200Y-72243900D03*
X123611900Y-68299700D03*
X153750000Y-72209200D03*
X150936900Y-53505300D03*
X154786600Y-69591600D03*
X154776300Y-72241500D03*
X126603600Y-55365200D03*
X111622000Y-66120800D03*
X156153400Y-72212900D03*
X137770500Y-52208200D03*
X150617100Y-59310300D03*
X154948000Y-62905000D03*
X123170100Y-60623400D03*
X118599600Y-61691300D03*
X154217800Y-63902400D03*
X123203500Y-61983500D03*
X120810000Y-62263800D03*
X154941000Y-66055500D03*
X115162300Y-65497900D03*
X152375100Y-66878800D03*
X123817900Y-63890300D03*
G04 #@! TO.N,GND*
X91220800Y-125748400D03*
X70482300Y-125087500D03*
X103820300Y-121258700D03*
G04 #@! TO.N,#RD*
X96386900Y-121750000D03*
X99909200Y-136715000D03*
G04 #@! TO.N,#RCS*
X67833400Y-142249300D03*
X106084100Y-125285000D03*
G04 #@! TO.N,A4*
X78373500Y-138954500D03*
X75111500Y-130041400D03*
G04 #@! TO.N,A5*
X79160400Y-139741400D03*
X76491500Y-128588600D03*
G04 #@! TO.N,A6*
X79881100Y-140462100D03*
X76562200Y-130288800D03*
G04 #@! TO.N,A7*
X77894200Y-137838400D03*
X75208200Y-131642700D03*
G04 #@! TO.N,A8*
X81331800Y-140543900D03*
X77140000Y-123464200D03*
G04 #@! TO.N,A9*
X82750000Y-140543300D03*
X78232800Y-123464200D03*
G04 #@! TO.N,A10*
X84296600Y-140560400D03*
X89193200Y-124785200D03*
G04 #@! TO.N,A11*
X84333400Y-139544200D03*
X79265900Y-123464200D03*
G04 #@! TO.N,A12*
X80274500Y-138555400D03*
X76417100Y-127250000D03*
G04 #@! TO.N,(A13*
X66226100Y-122867600D03*
X89000000Y-140522900D03*
X100621800Y-130365000D03*
G04 #@! TO.N,(A14*
X91529200Y-140556900D03*
X70470800Y-122768700D03*
X104909900Y-129141000D03*
G04 #@! TO.N,(A15*
X92681100Y-139966400D03*
X104049800Y-128467600D03*
G04 #@! TO.N,D0*
X93406400Y-139187200D03*
X101301600Y-125691300D03*
G04 #@! TO.N,D2*
X94880900Y-136101400D03*
X93353900Y-126796100D03*
G04 #@! TO.N,D3*
X95307400Y-137605600D03*
X92686500Y-125250000D03*
G04 #@! TO.N,D5*
X97536200Y-138918600D03*
X91717700Y-127316100D03*
G04 #@! TO.N,D6*
X101969200Y-142243900D03*
X73611900Y-138299700D03*
G04 #@! TO.N,D7*
X103750000Y-142209200D03*
X100936900Y-123505300D03*
G04 #@! TO.N,#RS*
X104776300Y-142241500D03*
X104786600Y-139591600D03*
G04 #@! TO.N,VIN*
X106153400Y-142212900D03*
X76603600Y-125365200D03*
X61622000Y-136120800D03*
G04 #@! TO.N,A14*
X87770500Y-122208200D03*
X100617100Y-129310300D03*
G04 #@! TO.N,A15*
X73170100Y-130623400D03*
X104948000Y-132905000D03*
X68599600Y-131691300D03*
G04 #@! TO.N,A16*
X73203500Y-131983500D03*
X104217800Y-133902400D03*
G04 #@! TO.N,A17*
X104941000Y-136055500D03*
X65162300Y-135497900D03*
X70810000Y-132263800D03*
G04 #@! TO.N,A18*
X73817900Y-133890300D03*
X102375100Y-136878800D03*
G04 #@! TD*
D11*
G04 #@! TO.N,*
X81238000Y-87713800D02*
X82497600Y-88973400D01*
X82497600Y-88973400D02*
X89445800Y-88973400D01*
X89445800Y-88973400D02*
X91220800Y-90748400D01*
X103820300Y-86258700D02*
X103094100Y-85532500D01*
X103094100Y-85532500D02*
X67493600Y-85532500D01*
X70482300Y-90081300D02*
X73070500Y-90081300D01*
X73070500Y-90081300D02*
X75438000Y-87713800D01*
X75438000Y-87713800D02*
X81238000Y-87713800D01*
X65468100Y-88244600D02*
X67304800Y-90081300D01*
X65468100Y-87558000D02*
X65468100Y-88244600D01*
X70482300Y-90087500D02*
X70482300Y-90081300D01*
X67493600Y-85532500D02*
X65468100Y-87558000D01*
X67304800Y-90081300D02*
X70482300Y-90081300D01*
D12*
X96386900Y-87020700D02*
X101353500Y-91987300D01*
X101353500Y-97911900D02*
X99909200Y-99356200D01*
X96386900Y-86750000D02*
X96386900Y-87020700D01*
X101353500Y-91987300D02*
X101353500Y-97911900D01*
X99909200Y-99356200D02*
X99909200Y-101715000D01*
X67833400Y-107249300D02*
X69571600Y-108987500D01*
X106894500Y-91095400D02*
X106084100Y-90285000D01*
X106894500Y-107505100D02*
X106894500Y-91095400D01*
X69571600Y-108987500D02*
X105412100Y-108987500D01*
X105412100Y-108987500D02*
X106894500Y-107505100D01*
X77984500Y-103954500D02*
X74655300Y-100625300D01*
X78373500Y-103954500D02*
X77984500Y-103954500D01*
X74655300Y-98589800D02*
X74482900Y-98417400D01*
X74655300Y-100625300D02*
X74655300Y-98589800D01*
X74482900Y-95670000D02*
X75111500Y-95041400D01*
X74482900Y-98417400D02*
X74482900Y-95670000D01*
X79098800Y-103017100D02*
X78380700Y-102299000D01*
X78380700Y-102299000D02*
X78380700Y-98325300D01*
X75836900Y-94243200D02*
X76491500Y-93588600D01*
X75836900Y-95781500D02*
X75836900Y-94243200D01*
X78380700Y-98325300D02*
X75836900Y-95781500D01*
X79160400Y-104741400D02*
X79098800Y-104679800D01*
X79098800Y-104679800D02*
X79098800Y-103017100D01*
X79885700Y-104440900D02*
X79549100Y-104104300D01*
X79549100Y-104104300D02*
X79549100Y-102830500D01*
X79881100Y-105462100D02*
X79885700Y-105457500D01*
X79885700Y-105457500D02*
X79885700Y-104440900D01*
X79549100Y-102830500D02*
X78831000Y-102112400D01*
X78831000Y-97557600D02*
X76562200Y-95288800D01*
X78831000Y-102112400D02*
X78831000Y-97557600D01*
X75208200Y-100152400D02*
X77894200Y-102838400D01*
X75208200Y-96642700D02*
X75208200Y-100152400D01*
X77140000Y-88464200D02*
X79861900Y-91186100D01*
X79861900Y-101869500D02*
X81331800Y-103339400D01*
X79861900Y-91186100D02*
X79861900Y-101869500D01*
X81331800Y-103339400D02*
X81331800Y-105543900D01*
X78240300Y-88464300D02*
X80312100Y-90536100D01*
X78232800Y-88464200D02*
X78240300Y-88464200D01*
X78240300Y-88464200D02*
X78240300Y-88464300D01*
X80312200Y-90536100D02*
X80312200Y-101682900D01*
X80312100Y-90536100D02*
X80312200Y-90536100D01*
X80312200Y-101682900D02*
X82750000Y-104120700D01*
X82750000Y-104120700D02*
X82750000Y-105543300D01*
X84691200Y-105560400D02*
X89193200Y-101058400D01*
X84296600Y-105560400D02*
X84691200Y-105560400D01*
X89193200Y-101058400D02*
X89193200Y-89785200D01*
X79265900Y-88464200D02*
X80762600Y-89960900D01*
X80762600Y-89960900D02*
X80762600Y-100973400D01*
X80762600Y-100973400D02*
X84333400Y-104544200D01*
X79298900Y-101943400D02*
X79298900Y-95131800D01*
X80274500Y-103555400D02*
X80274500Y-102919000D01*
X79298900Y-95131800D02*
X76417100Y-92250000D01*
X80274500Y-102919000D02*
X79298900Y-101943400D01*
X66226100Y-87867600D02*
X66852600Y-88494100D01*
X73094800Y-88494100D02*
X74400400Y-87188500D01*
X91946100Y-91048900D02*
X91946100Y-89520400D01*
X89000000Y-105522900D02*
X90821200Y-103701700D01*
X90821200Y-103701700D02*
X90821200Y-92173800D01*
X74400400Y-87188500D02*
X86725100Y-87188500D01*
X66852600Y-88494100D02*
X73094800Y-88494100D01*
X88034600Y-88498000D02*
X90923700Y-88498000D01*
X94777200Y-89520400D02*
X100621800Y-95365000D01*
X90923700Y-88498000D02*
X91946100Y-89520400D01*
X91946100Y-89520400D02*
X94777200Y-89520400D01*
X90821200Y-92173800D02*
X91946100Y-91048900D01*
X86725100Y-87188500D02*
X88034600Y-88498000D01*
X104909900Y-94141000D02*
X104909900Y-96567000D01*
X104909900Y-93263000D02*
X104909900Y-94141000D01*
X101619100Y-99857800D02*
X101619100Y-102385200D01*
X70470800Y-87768700D02*
X72214900Y-86024600D01*
X97366200Y-86024600D02*
X100890300Y-89548700D01*
X91668200Y-105695900D02*
X91529200Y-105556900D01*
X101195600Y-89548700D02*
X104909900Y-93263000D01*
X100890300Y-89548700D02*
X101195600Y-89548700D01*
X104909900Y-96567000D02*
X101619100Y-99857800D01*
X72214900Y-86024600D02*
X97366200Y-86024600D01*
X98308400Y-105695900D02*
X91668200Y-105695900D01*
X101619100Y-102385200D02*
X98308400Y-105695900D01*
X101137900Y-99625300D02*
X104049800Y-96713400D01*
X92808900Y-105094200D02*
X98233000Y-105094200D01*
X98233000Y-105094200D02*
X101137900Y-102189300D01*
X101137900Y-102189300D02*
X101137900Y-99625300D01*
X104049800Y-96713400D02*
X104049800Y-93467600D01*
X92681100Y-104966400D02*
X92808900Y-105094200D01*
X101301600Y-90691300D02*
X101849800Y-91239500D01*
X100687600Y-101993400D02*
X98037100Y-104643900D01*
X93863100Y-104643900D02*
X93406400Y-104187200D01*
X98037100Y-104643900D02*
X93863100Y-104643900D01*
X101849800Y-91239500D02*
X101849800Y-98052500D01*
X100687600Y-99214700D02*
X100687600Y-101993400D01*
X101849800Y-98052500D02*
X100687600Y-99214700D01*
X93353900Y-91796100D02*
X93353900Y-99574400D01*
X93353900Y-99574400D02*
X94880900Y-101101400D01*
X95307400Y-102605600D02*
X92598600Y-99896800D01*
X92598600Y-99896800D02*
X92598600Y-90337900D01*
X92598600Y-90337900D02*
X92686500Y-90250000D01*
X97536200Y-103918600D02*
X95578900Y-103918600D01*
X95578900Y-103918600D02*
X91717700Y-100057400D01*
X91717700Y-100057400D02*
X91717700Y-92316100D01*
X78399100Y-108086900D02*
X101126200Y-108086900D01*
X101126200Y-108086900D02*
X101969200Y-107243900D01*
X73611900Y-103299700D02*
X78399100Y-108086900D01*
X100936900Y-88505300D02*
X105693700Y-93262100D01*
X105693700Y-102543900D02*
X103750000Y-104487600D01*
X105693700Y-93262100D02*
X105693700Y-102543900D01*
X103750000Y-104487600D02*
X103750000Y-107209200D01*
X104786600Y-104591600D02*
X104786600Y-107231200D01*
X104786600Y-107231200D02*
X104776300Y-107241500D01*
X64436900Y-101120800D02*
X64436900Y-99821200D01*
X64436900Y-101120800D02*
X71853300Y-108537200D01*
X104829100Y-108537200D02*
X106153400Y-107212900D01*
X71853300Y-108537200D02*
X104829100Y-108537200D01*
X64436900Y-99821200D02*
X73892900Y-90365200D01*
X73892900Y-90365200D02*
X76603600Y-90365200D01*
X61622000Y-101120800D02*
X64436900Y-101120800D01*
X100617100Y-94310300D02*
X93515000Y-87208200D01*
X93515000Y-87208200D02*
X87770500Y-87208200D01*
X68599600Y-96691300D02*
X68783100Y-96507800D01*
X104188300Y-101785200D02*
X104188300Y-100232300D01*
X104188300Y-100232300D02*
X104948000Y-99472600D01*
X73170100Y-95812100D02*
X73170100Y-95623400D01*
X104948000Y-99472600D02*
X104948000Y-97905000D01*
X98787200Y-107186300D02*
X104188300Y-101785200D01*
X72474400Y-100499500D02*
X79161200Y-107186300D01*
X68783100Y-96507800D02*
X72474400Y-96507800D01*
X72474400Y-96507800D02*
X72474400Y-100499500D01*
X72474400Y-96507800D02*
X73170100Y-95812100D01*
X79161200Y-107186300D02*
X98787200Y-107186300D01*
X73072700Y-100356300D02*
X79452400Y-106736000D01*
X79452400Y-106736000D02*
X98591400Y-106736000D01*
X103738000Y-99382200D02*
X104217800Y-98902400D01*
X103738000Y-101589400D02*
X103738000Y-99382200D01*
X73203500Y-96983500D02*
X73072700Y-97114300D01*
X98591400Y-106736000D02*
X103738000Y-101589400D01*
X73072700Y-97114300D02*
X73072700Y-100356300D01*
X70810000Y-100497900D02*
X71835900Y-100497900D01*
X104941000Y-101744800D02*
X104941000Y-101055500D01*
X71835900Y-100497900D02*
X78974600Y-107636600D01*
X70810000Y-97263800D02*
X70810000Y-100497900D01*
X78974600Y-107636600D02*
X99049200Y-107636600D01*
X70810000Y-100497900D02*
X65162300Y-100497900D01*
X99049200Y-107636600D02*
X104941000Y-101744800D01*
X73817900Y-100424800D02*
X79678800Y-106285700D01*
X79678800Y-106285700D02*
X98395600Y-106285700D01*
X73817900Y-98890300D02*
X73817900Y-100424800D01*
X102375100Y-102306200D02*
X102375100Y-101878800D01*
X98395600Y-106285700D02*
X102375100Y-102306200D01*
D11*
X81238000Y-52713800D02*
X82497600Y-53973400D01*
X82497600Y-53973400D02*
X89445800Y-53973400D01*
X89445800Y-53973400D02*
X91220800Y-55748400D01*
X103820300Y-51258700D02*
X103094100Y-50532500D01*
X103094100Y-50532500D02*
X67493600Y-50532500D01*
X70482300Y-55081300D02*
X73070500Y-55081300D01*
X73070500Y-55081300D02*
X75438000Y-52713800D01*
X75438000Y-52713800D02*
X81238000Y-52713800D01*
X65468100Y-53244600D02*
X67304800Y-55081300D01*
X65468100Y-52558000D02*
X65468100Y-53244600D01*
X70482300Y-55087500D02*
X70482300Y-55081300D01*
X67493600Y-50532500D02*
X65468100Y-52558000D01*
X67304800Y-55081300D02*
X70482300Y-55081300D01*
D12*
X96386900Y-52020700D02*
X101353500Y-56987300D01*
X101353500Y-62911900D02*
X99909200Y-64356200D01*
X96386900Y-51750000D02*
X96386900Y-52020700D01*
X101353500Y-56987300D02*
X101353500Y-62911900D01*
X99909200Y-64356200D02*
X99909200Y-66715000D01*
X67833400Y-72249300D02*
X69571600Y-73987500D01*
X106894500Y-56095400D02*
X106084100Y-55285000D01*
X106894500Y-72505100D02*
X106894500Y-56095400D01*
X69571600Y-73987500D02*
X105412100Y-73987500D01*
X105412100Y-73987500D02*
X106894500Y-72505100D01*
X77984500Y-68954500D02*
X74655300Y-65625300D01*
X78373500Y-68954500D02*
X77984500Y-68954500D01*
X74655300Y-63589800D02*
X74482900Y-63417400D01*
X74655300Y-65625300D02*
X74655300Y-63589800D01*
X74482900Y-60670000D02*
X75111500Y-60041400D01*
X74482900Y-63417400D02*
X74482900Y-60670000D01*
X79098800Y-68017100D02*
X78380700Y-67299000D01*
X78380700Y-67299000D02*
X78380700Y-63325300D01*
X75836900Y-59243200D02*
X76491500Y-58588600D01*
X75836900Y-60781500D02*
X75836900Y-59243200D01*
X78380700Y-63325300D02*
X75836900Y-60781500D01*
X79160400Y-69741400D02*
X79098800Y-69679800D01*
X79098800Y-69679800D02*
X79098800Y-68017100D01*
X79885700Y-69440900D02*
X79549100Y-69104300D01*
X79549100Y-69104300D02*
X79549100Y-67830500D01*
X79881100Y-70462100D02*
X79885700Y-70457500D01*
X79885700Y-70457500D02*
X79885700Y-69440900D01*
X79549100Y-67830500D02*
X78831000Y-67112400D01*
X78831000Y-62557600D02*
X76562200Y-60288800D01*
X78831000Y-67112400D02*
X78831000Y-62557600D01*
X75208200Y-65152400D02*
X77894200Y-67838400D01*
X75208200Y-61642700D02*
X75208200Y-65152400D01*
X77140000Y-53464200D02*
X79861900Y-56186100D01*
X79861900Y-66869500D02*
X81331800Y-68339400D01*
X79861900Y-56186100D02*
X79861900Y-66869500D01*
X81331800Y-68339400D02*
X81331800Y-70543900D01*
X78240300Y-53464300D02*
X80312100Y-55536100D01*
X78232800Y-53464200D02*
X78240300Y-53464200D01*
X78240300Y-53464200D02*
X78240300Y-53464300D01*
X80312200Y-55536100D02*
X80312200Y-66682900D01*
X80312100Y-55536100D02*
X80312200Y-55536100D01*
X80312200Y-66682900D02*
X82750000Y-69120700D01*
X82750000Y-69120700D02*
X82750000Y-70543300D01*
X84691200Y-70560400D02*
X89193200Y-66058400D01*
X84296600Y-70560400D02*
X84691200Y-70560400D01*
X89193200Y-66058400D02*
X89193200Y-54785200D01*
X79265900Y-53464200D02*
X80762600Y-54960900D01*
X80762600Y-54960900D02*
X80762600Y-65973400D01*
X80762600Y-65973400D02*
X84333400Y-69544200D01*
X79298900Y-66943400D02*
X79298900Y-60131800D01*
X80274500Y-68555400D02*
X80274500Y-67919000D01*
X79298900Y-60131800D02*
X76417100Y-57250000D01*
X80274500Y-67919000D02*
X79298900Y-66943400D01*
X66226100Y-52867600D02*
X66852600Y-53494100D01*
X73094800Y-53494100D02*
X74400400Y-52188500D01*
X91946100Y-56048900D02*
X91946100Y-54520400D01*
X89000000Y-70522900D02*
X90821200Y-68701700D01*
X90821200Y-68701700D02*
X90821200Y-57173800D01*
X74400400Y-52188500D02*
X86725100Y-52188500D01*
X66852600Y-53494100D02*
X73094800Y-53494100D01*
X88034600Y-53498000D02*
X90923700Y-53498000D01*
X94777200Y-54520400D02*
X100621800Y-60365000D01*
X90923700Y-53498000D02*
X91946100Y-54520400D01*
X91946100Y-54520400D02*
X94777200Y-54520400D01*
X90821200Y-57173800D02*
X91946100Y-56048900D01*
X86725100Y-52188500D02*
X88034600Y-53498000D01*
X104909900Y-59141000D02*
X104909900Y-61567000D01*
X104909900Y-58263000D02*
X104909900Y-59141000D01*
X101619100Y-64857800D02*
X101619100Y-67385200D01*
X70470800Y-52768700D02*
X72214900Y-51024600D01*
X97366200Y-51024600D02*
X100890300Y-54548700D01*
X91668200Y-70695900D02*
X91529200Y-70556900D01*
X101195600Y-54548700D02*
X104909900Y-58263000D01*
X100890300Y-54548700D02*
X101195600Y-54548700D01*
X104909900Y-61567000D02*
X101619100Y-64857800D01*
X72214900Y-51024600D02*
X97366200Y-51024600D01*
X98308400Y-70695900D02*
X91668200Y-70695900D01*
X101619100Y-67385200D02*
X98308400Y-70695900D01*
X101137900Y-64625300D02*
X104049800Y-61713400D01*
X92808900Y-70094200D02*
X98233000Y-70094200D01*
X98233000Y-70094200D02*
X101137900Y-67189300D01*
X101137900Y-67189300D02*
X101137900Y-64625300D01*
X104049800Y-61713400D02*
X104049800Y-58467600D01*
X92681100Y-69966400D02*
X92808900Y-70094200D01*
X101301600Y-55691300D02*
X101849800Y-56239500D01*
X100687600Y-66993400D02*
X98037100Y-69643900D01*
X93863100Y-69643900D02*
X93406400Y-69187200D01*
X98037100Y-69643900D02*
X93863100Y-69643900D01*
X101849800Y-56239500D02*
X101849800Y-63052500D01*
X100687600Y-64214700D02*
X100687600Y-66993400D01*
X101849800Y-63052500D02*
X100687600Y-64214700D01*
X93353900Y-56796100D02*
X93353900Y-64574400D01*
X93353900Y-64574400D02*
X94880900Y-66101400D01*
X95307400Y-67605600D02*
X92598600Y-64896800D01*
X92598600Y-64896800D02*
X92598600Y-55337900D01*
X92598600Y-55337900D02*
X92686500Y-55250000D01*
X97536200Y-68918600D02*
X95578900Y-68918600D01*
X95578900Y-68918600D02*
X91717700Y-65057400D01*
X91717700Y-65057400D02*
X91717700Y-57316100D01*
X78399100Y-73086900D02*
X101126200Y-73086900D01*
X101126200Y-73086900D02*
X101969200Y-72243900D01*
X73611900Y-68299700D02*
X78399100Y-73086900D01*
X100936900Y-53505300D02*
X105693700Y-58262100D01*
X105693700Y-67543900D02*
X103750000Y-69487600D01*
X105693700Y-58262100D02*
X105693700Y-67543900D01*
X103750000Y-69487600D02*
X103750000Y-72209200D01*
X104786600Y-69591600D02*
X104786600Y-72231200D01*
X104786600Y-72231200D02*
X104776300Y-72241500D01*
X64436900Y-66120800D02*
X64436900Y-64821200D01*
X64436900Y-66120800D02*
X71853300Y-73537200D01*
X104829100Y-73537200D02*
X106153400Y-72212900D01*
X71853300Y-73537200D02*
X104829100Y-73537200D01*
X64436900Y-64821200D02*
X73892900Y-55365200D01*
X73892900Y-55365200D02*
X76603600Y-55365200D01*
X61622000Y-66120800D02*
X64436900Y-66120800D01*
X100617100Y-59310300D02*
X93515000Y-52208200D01*
X93515000Y-52208200D02*
X87770500Y-52208200D01*
X68599600Y-61691300D02*
X68783100Y-61507800D01*
X104188300Y-66785200D02*
X104188300Y-65232300D01*
X104188300Y-65232300D02*
X104948000Y-64472600D01*
X73170100Y-60812100D02*
X73170100Y-60623400D01*
X104948000Y-64472600D02*
X104948000Y-62905000D01*
X98787200Y-72186300D02*
X104188300Y-66785200D01*
X72474400Y-65499500D02*
X79161200Y-72186300D01*
X68783100Y-61507800D02*
X72474400Y-61507800D01*
X72474400Y-61507800D02*
X72474400Y-65499500D01*
X72474400Y-61507800D02*
X73170100Y-60812100D01*
X79161200Y-72186300D02*
X98787200Y-72186300D01*
X73072700Y-65356300D02*
X79452400Y-71736000D01*
X79452400Y-71736000D02*
X98591400Y-71736000D01*
X103738000Y-64382200D02*
X104217800Y-63902400D01*
X103738000Y-66589400D02*
X103738000Y-64382200D01*
X73203500Y-61983500D02*
X73072700Y-62114300D01*
X98591400Y-71736000D02*
X103738000Y-66589400D01*
X73072700Y-62114300D02*
X73072700Y-65356300D01*
X70810000Y-65497900D02*
X71835900Y-65497900D01*
X104941000Y-66744800D02*
X104941000Y-66055500D01*
X71835900Y-65497900D02*
X78974600Y-72636600D01*
X70810000Y-62263800D02*
X70810000Y-65497900D01*
X78974600Y-72636600D02*
X99049200Y-72636600D01*
X70810000Y-65497900D02*
X65162300Y-65497900D01*
X99049200Y-72636600D02*
X104941000Y-66744800D01*
X73817900Y-65424800D02*
X79678800Y-71285700D01*
X79678800Y-71285700D02*
X98395600Y-71285700D01*
X73817900Y-63890300D02*
X73817900Y-65424800D01*
X102375100Y-67306200D02*
X102375100Y-66878800D01*
X98395600Y-71285700D02*
X102375100Y-67306200D01*
D11*
X131238000Y-122713800D02*
X132497600Y-123973400D01*
X132497600Y-123973400D02*
X139445800Y-123973400D01*
X139445800Y-123973400D02*
X141220800Y-125748400D01*
X153820300Y-121258700D02*
X153094100Y-120532500D01*
X153094100Y-120532500D02*
X117493600Y-120532500D01*
X120482300Y-125081300D02*
X123070500Y-125081300D01*
X123070500Y-125081300D02*
X125438000Y-122713800D01*
X125438000Y-122713800D02*
X131238000Y-122713800D01*
X115468100Y-123244600D02*
X117304800Y-125081300D01*
X115468100Y-122558000D02*
X115468100Y-123244600D01*
X120482300Y-125087500D02*
X120482300Y-125081300D01*
X117493600Y-120532500D02*
X115468100Y-122558000D01*
X117304800Y-125081300D02*
X120482300Y-125081300D01*
D12*
X146386900Y-122020700D02*
X151353500Y-126987300D01*
X151353500Y-132911900D02*
X149909200Y-134356200D01*
X146386900Y-121750000D02*
X146386900Y-122020700D01*
X151353500Y-126987300D02*
X151353500Y-132911900D01*
X149909200Y-134356200D02*
X149909200Y-136715000D01*
X117833400Y-142249300D02*
X119571600Y-143987500D01*
X156894500Y-126095400D02*
X156084100Y-125285000D01*
X156894500Y-142505100D02*
X156894500Y-126095400D01*
X119571600Y-143987500D02*
X155412100Y-143987500D01*
X155412100Y-143987500D02*
X156894500Y-142505100D01*
X127984500Y-138954500D02*
X124655300Y-135625300D01*
X128373500Y-138954500D02*
X127984500Y-138954500D01*
X124655300Y-133589800D02*
X124482900Y-133417400D01*
X124655300Y-135625300D02*
X124655300Y-133589800D01*
X124482900Y-130670000D02*
X125111500Y-130041400D01*
X124482900Y-133417400D02*
X124482900Y-130670000D01*
X129098800Y-138017100D02*
X128380700Y-137299000D01*
X128380700Y-137299000D02*
X128380700Y-133325300D01*
X125836900Y-129243200D02*
X126491500Y-128588600D01*
X125836900Y-130781500D02*
X125836900Y-129243200D01*
X128380700Y-133325300D02*
X125836900Y-130781500D01*
X129160400Y-139741400D02*
X129098800Y-139679800D01*
X129098800Y-139679800D02*
X129098800Y-138017100D01*
X129885700Y-139440900D02*
X129549100Y-139104300D01*
X129549100Y-139104300D02*
X129549100Y-137830500D01*
X129881100Y-140462100D02*
X129885700Y-140457500D01*
X129885700Y-140457500D02*
X129885700Y-139440900D01*
X129549100Y-137830500D02*
X128831000Y-137112400D01*
X128831000Y-132557600D02*
X126562200Y-130288800D01*
X128831000Y-137112400D02*
X128831000Y-132557600D01*
X125208200Y-135152400D02*
X127894200Y-137838400D01*
X125208200Y-131642700D02*
X125208200Y-135152400D01*
X127140000Y-123464200D02*
X129861900Y-126186100D01*
X129861900Y-136869500D02*
X131331800Y-138339400D01*
X129861900Y-126186100D02*
X129861900Y-136869500D01*
X131331800Y-138339400D02*
X131331800Y-140543900D01*
X128240300Y-123464300D02*
X130312100Y-125536100D01*
X128232800Y-123464200D02*
X128240300Y-123464200D01*
X128240300Y-123464200D02*
X128240300Y-123464300D01*
X130312200Y-125536100D02*
X130312200Y-136682900D01*
X130312100Y-125536100D02*
X130312200Y-125536100D01*
X130312200Y-136682900D02*
X132750000Y-139120700D01*
X132750000Y-139120700D02*
X132750000Y-140543300D01*
X134691200Y-140560400D02*
X139193200Y-136058400D01*
X134296600Y-140560400D02*
X134691200Y-140560400D01*
X139193200Y-136058400D02*
X139193200Y-124785200D01*
X129265900Y-123464200D02*
X130762600Y-124960900D01*
X130762600Y-124960900D02*
X130762600Y-135973400D01*
X130762600Y-135973400D02*
X134333400Y-139544200D01*
X129298900Y-136943400D02*
X129298900Y-130131800D01*
X130274500Y-138555400D02*
X130274500Y-137919000D01*
X129298900Y-130131800D02*
X126417100Y-127250000D01*
X130274500Y-137919000D02*
X129298900Y-136943400D01*
X116226100Y-122867600D02*
X116852600Y-123494100D01*
X123094800Y-123494100D02*
X124400400Y-122188500D01*
X141946100Y-126048900D02*
X141946100Y-124520400D01*
X139000000Y-140522900D02*
X140821200Y-138701700D01*
X140821200Y-138701700D02*
X140821200Y-127173800D01*
X124400400Y-122188500D02*
X136725100Y-122188500D01*
X116852600Y-123494100D02*
X123094800Y-123494100D01*
X138034600Y-123498000D02*
X140923700Y-123498000D01*
X144777200Y-124520400D02*
X150621800Y-130365000D01*
X140923700Y-123498000D02*
X141946100Y-124520400D01*
X141946100Y-124520400D02*
X144777200Y-124520400D01*
X140821200Y-127173800D02*
X141946100Y-126048900D01*
X136725100Y-122188500D02*
X138034600Y-123498000D01*
X154909900Y-129141000D02*
X154909900Y-131567000D01*
X154909900Y-128263000D02*
X154909900Y-129141000D01*
X151619100Y-134857800D02*
X151619100Y-137385200D01*
X120470800Y-122768700D02*
X122214900Y-121024600D01*
X147366200Y-121024600D02*
X150890300Y-124548700D01*
X141668200Y-140695900D02*
X141529200Y-140556900D01*
X151195600Y-124548700D02*
X154909900Y-128263000D01*
X150890300Y-124548700D02*
X151195600Y-124548700D01*
X154909900Y-131567000D02*
X151619100Y-134857800D01*
X122214900Y-121024600D02*
X147366200Y-121024600D01*
X148308400Y-140695900D02*
X141668200Y-140695900D01*
X151619100Y-137385200D02*
X148308400Y-140695900D01*
X151137900Y-134625300D02*
X154049800Y-131713400D01*
X142808900Y-140094200D02*
X148233000Y-140094200D01*
X148233000Y-140094200D02*
X151137900Y-137189300D01*
X151137900Y-137189300D02*
X151137900Y-134625300D01*
X154049800Y-131713400D02*
X154049800Y-128467600D01*
X142681100Y-139966400D02*
X142808900Y-140094200D01*
X151301600Y-125691300D02*
X151849800Y-126239500D01*
X150687600Y-136993400D02*
X148037100Y-139643900D01*
X143863100Y-139643900D02*
X143406400Y-139187200D01*
X148037100Y-139643900D02*
X143863100Y-139643900D01*
X151849800Y-126239500D02*
X151849800Y-133052500D01*
X150687600Y-134214700D02*
X150687600Y-136993400D01*
X151849800Y-133052500D02*
X150687600Y-134214700D01*
X143353900Y-126796100D02*
X143353900Y-134574400D01*
X143353900Y-134574400D02*
X144880900Y-136101400D01*
X145307400Y-137605600D02*
X142598600Y-134896800D01*
X142598600Y-134896800D02*
X142598600Y-125337900D01*
X142598600Y-125337900D02*
X142686500Y-125250000D01*
X147536200Y-138918600D02*
X145578900Y-138918600D01*
X145578900Y-138918600D02*
X141717700Y-135057400D01*
X141717700Y-135057400D02*
X141717700Y-127316100D01*
X128399100Y-143086900D02*
X151126200Y-143086900D01*
X151126200Y-143086900D02*
X151969200Y-142243900D01*
X123611900Y-138299700D02*
X128399100Y-143086900D01*
X150936900Y-123505300D02*
X155693700Y-128262100D01*
X155693700Y-137543900D02*
X153750000Y-139487600D01*
X155693700Y-128262100D02*
X155693700Y-137543900D01*
X153750000Y-139487600D02*
X153750000Y-142209200D01*
X154786600Y-139591600D02*
X154786600Y-142231200D01*
X154786600Y-142231200D02*
X154776300Y-142241500D01*
X114436900Y-136120800D02*
X114436900Y-134821200D01*
X114436900Y-136120800D02*
X121853300Y-143537200D01*
X154829100Y-143537200D02*
X156153400Y-142212900D01*
X121853300Y-143537200D02*
X154829100Y-143537200D01*
X114436900Y-134821200D02*
X123892900Y-125365200D01*
X123892900Y-125365200D02*
X126603600Y-125365200D01*
X111622000Y-136120800D02*
X114436900Y-136120800D01*
X150617100Y-129310300D02*
X143515000Y-122208200D01*
X143515000Y-122208200D02*
X137770500Y-122208200D01*
X118599600Y-131691300D02*
X118783100Y-131507800D01*
X154188300Y-136785200D02*
X154188300Y-135232300D01*
X154188300Y-135232300D02*
X154948000Y-134472600D01*
X123170100Y-130812100D02*
X123170100Y-130623400D01*
X154948000Y-134472600D02*
X154948000Y-132905000D01*
X148787200Y-142186300D02*
X154188300Y-136785200D01*
X122474400Y-135499500D02*
X129161200Y-142186300D01*
X118783100Y-131507800D02*
X122474400Y-131507800D01*
X122474400Y-131507800D02*
X122474400Y-135499500D01*
X122474400Y-131507800D02*
X123170100Y-130812100D01*
X129161200Y-142186300D02*
X148787200Y-142186300D01*
X123072700Y-135356300D02*
X129452400Y-141736000D01*
X129452400Y-141736000D02*
X148591400Y-141736000D01*
X153738000Y-134382200D02*
X154217800Y-133902400D01*
X153738000Y-136589400D02*
X153738000Y-134382200D01*
X123203500Y-131983500D02*
X123072700Y-132114300D01*
X148591400Y-141736000D02*
X153738000Y-136589400D01*
X123072700Y-132114300D02*
X123072700Y-135356300D01*
X120810000Y-135497900D02*
X121835900Y-135497900D01*
X154941000Y-136744800D02*
X154941000Y-136055500D01*
X121835900Y-135497900D02*
X128974600Y-142636600D01*
X120810000Y-132263800D02*
X120810000Y-135497900D01*
X128974600Y-142636600D02*
X149049200Y-142636600D01*
X120810000Y-135497900D02*
X115162300Y-135497900D01*
X149049200Y-142636600D02*
X154941000Y-136744800D01*
X123817900Y-135424800D02*
X129678800Y-141285700D01*
X129678800Y-141285700D02*
X148395600Y-141285700D01*
X123817900Y-133890300D02*
X123817900Y-135424800D01*
X152375100Y-137306200D02*
X152375100Y-136878800D01*
X148395600Y-141285700D02*
X152375100Y-137306200D01*
D11*
X131238000Y-87713800D02*
X132497600Y-88973400D01*
X132497600Y-88973400D02*
X139445800Y-88973400D01*
X139445800Y-88973400D02*
X141220800Y-90748400D01*
X153820300Y-86258700D02*
X153094100Y-85532500D01*
X153094100Y-85532500D02*
X117493600Y-85532500D01*
X120482300Y-90081300D02*
X123070500Y-90081300D01*
X123070500Y-90081300D02*
X125438000Y-87713800D01*
X125438000Y-87713800D02*
X131238000Y-87713800D01*
X115468100Y-88244600D02*
X117304800Y-90081300D01*
X115468100Y-87558000D02*
X115468100Y-88244600D01*
X120482300Y-90087500D02*
X120482300Y-90081300D01*
X117493600Y-85532500D02*
X115468100Y-87558000D01*
X117304800Y-90081300D02*
X120482300Y-90081300D01*
D12*
X146386900Y-87020700D02*
X151353500Y-91987300D01*
X151353500Y-97911900D02*
X149909200Y-99356200D01*
X146386900Y-86750000D02*
X146386900Y-87020700D01*
X151353500Y-91987300D02*
X151353500Y-97911900D01*
X149909200Y-99356200D02*
X149909200Y-101715000D01*
X117833400Y-107249300D02*
X119571600Y-108987500D01*
X156894500Y-91095400D02*
X156084100Y-90285000D01*
X156894500Y-107505100D02*
X156894500Y-91095400D01*
X119571600Y-108987500D02*
X155412100Y-108987500D01*
X155412100Y-108987500D02*
X156894500Y-107505100D01*
X127984500Y-103954500D02*
X124655300Y-100625300D01*
X128373500Y-103954500D02*
X127984500Y-103954500D01*
X124655300Y-98589800D02*
X124482900Y-98417400D01*
X124655300Y-100625300D02*
X124655300Y-98589800D01*
X124482900Y-95670000D02*
X125111500Y-95041400D01*
X124482900Y-98417400D02*
X124482900Y-95670000D01*
X129098800Y-103017100D02*
X128380700Y-102299000D01*
X128380700Y-102299000D02*
X128380700Y-98325300D01*
X125836900Y-94243200D02*
X126491500Y-93588600D01*
X125836900Y-95781500D02*
X125836900Y-94243200D01*
X128380700Y-98325300D02*
X125836900Y-95781500D01*
X129160400Y-104741400D02*
X129098800Y-104679800D01*
X129098800Y-104679800D02*
X129098800Y-103017100D01*
X129885700Y-104440900D02*
X129549100Y-104104300D01*
X129549100Y-104104300D02*
X129549100Y-102830500D01*
X129881100Y-105462100D02*
X129885700Y-105457500D01*
X129885700Y-105457500D02*
X129885700Y-104440900D01*
X129549100Y-102830500D02*
X128831000Y-102112400D01*
X128831000Y-97557600D02*
X126562200Y-95288800D01*
X128831000Y-102112400D02*
X128831000Y-97557600D01*
X125208200Y-100152400D02*
X127894200Y-102838400D01*
X125208200Y-96642700D02*
X125208200Y-100152400D01*
X127140000Y-88464200D02*
X129861900Y-91186100D01*
X129861900Y-101869500D02*
X131331800Y-103339400D01*
X129861900Y-91186100D02*
X129861900Y-101869500D01*
X131331800Y-103339400D02*
X131331800Y-105543900D01*
X128240300Y-88464300D02*
X130312100Y-90536100D01*
X128232800Y-88464200D02*
X128240300Y-88464200D01*
X128240300Y-88464200D02*
X128240300Y-88464300D01*
X130312200Y-90536100D02*
X130312200Y-101682900D01*
X130312100Y-90536100D02*
X130312200Y-90536100D01*
X130312200Y-101682900D02*
X132750000Y-104120700D01*
X132750000Y-104120700D02*
X132750000Y-105543300D01*
X134691200Y-105560400D02*
X139193200Y-101058400D01*
X134296600Y-105560400D02*
X134691200Y-105560400D01*
X139193200Y-101058400D02*
X139193200Y-89785200D01*
X129265900Y-88464200D02*
X130762600Y-89960900D01*
X130762600Y-89960900D02*
X130762600Y-100973400D01*
X130762600Y-100973400D02*
X134333400Y-104544200D01*
X129298900Y-101943400D02*
X129298900Y-95131800D01*
X130274500Y-103555400D02*
X130274500Y-102919000D01*
X129298900Y-95131800D02*
X126417100Y-92250000D01*
X130274500Y-102919000D02*
X129298900Y-101943400D01*
X116226100Y-87867600D02*
X116852600Y-88494100D01*
X123094800Y-88494100D02*
X124400400Y-87188500D01*
X141946100Y-91048900D02*
X141946100Y-89520400D01*
X139000000Y-105522900D02*
X140821200Y-103701700D01*
X140821200Y-103701700D02*
X140821200Y-92173800D01*
X124400400Y-87188500D02*
X136725100Y-87188500D01*
X116852600Y-88494100D02*
X123094800Y-88494100D01*
X138034600Y-88498000D02*
X140923700Y-88498000D01*
X144777200Y-89520400D02*
X150621800Y-95365000D01*
X140923700Y-88498000D02*
X141946100Y-89520400D01*
X141946100Y-89520400D02*
X144777200Y-89520400D01*
X140821200Y-92173800D02*
X141946100Y-91048900D01*
X136725100Y-87188500D02*
X138034600Y-88498000D01*
X154909900Y-94141000D02*
X154909900Y-96567000D01*
X154909900Y-93263000D02*
X154909900Y-94141000D01*
X151619100Y-99857800D02*
X151619100Y-102385200D01*
X120470800Y-87768700D02*
X122214900Y-86024600D01*
X147366200Y-86024600D02*
X150890300Y-89548700D01*
X141668200Y-105695900D02*
X141529200Y-105556900D01*
X151195600Y-89548700D02*
X154909900Y-93263000D01*
X150890300Y-89548700D02*
X151195600Y-89548700D01*
X154909900Y-96567000D02*
X151619100Y-99857800D01*
X122214900Y-86024600D02*
X147366200Y-86024600D01*
X148308400Y-105695900D02*
X141668200Y-105695900D01*
X151619100Y-102385200D02*
X148308400Y-105695900D01*
X151137900Y-99625300D02*
X154049800Y-96713400D01*
X142808900Y-105094200D02*
X148233000Y-105094200D01*
X148233000Y-105094200D02*
X151137900Y-102189300D01*
X151137900Y-102189300D02*
X151137900Y-99625300D01*
X154049800Y-96713400D02*
X154049800Y-93467600D01*
X142681100Y-104966400D02*
X142808900Y-105094200D01*
X151301600Y-90691300D02*
X151849800Y-91239500D01*
X150687600Y-101993400D02*
X148037100Y-104643900D01*
X143863100Y-104643900D02*
X143406400Y-104187200D01*
X148037100Y-104643900D02*
X143863100Y-104643900D01*
X151849800Y-91239500D02*
X151849800Y-98052500D01*
X150687600Y-99214700D02*
X150687600Y-101993400D01*
X151849800Y-98052500D02*
X150687600Y-99214700D01*
X143353900Y-91796100D02*
X143353900Y-99574400D01*
X143353900Y-99574400D02*
X144880900Y-101101400D01*
X145307400Y-102605600D02*
X142598600Y-99896800D01*
X142598600Y-99896800D02*
X142598600Y-90337900D01*
X142598600Y-90337900D02*
X142686500Y-90250000D01*
X147536200Y-103918600D02*
X145578900Y-103918600D01*
X145578900Y-103918600D02*
X141717700Y-100057400D01*
X141717700Y-100057400D02*
X141717700Y-92316100D01*
X128399100Y-108086900D02*
X151126200Y-108086900D01*
X151126200Y-108086900D02*
X151969200Y-107243900D01*
X123611900Y-103299700D02*
X128399100Y-108086900D01*
X150936900Y-88505300D02*
X155693700Y-93262100D01*
X155693700Y-102543900D02*
X153750000Y-104487600D01*
X155693700Y-93262100D02*
X155693700Y-102543900D01*
X153750000Y-104487600D02*
X153750000Y-107209200D01*
X154786600Y-104591600D02*
X154786600Y-107231200D01*
X154786600Y-107231200D02*
X154776300Y-107241500D01*
X114436900Y-101120800D02*
X114436900Y-99821200D01*
X114436900Y-101120800D02*
X121853300Y-108537200D01*
X154829100Y-108537200D02*
X156153400Y-107212900D01*
X121853300Y-108537200D02*
X154829100Y-108537200D01*
X114436900Y-99821200D02*
X123892900Y-90365200D01*
X123892900Y-90365200D02*
X126603600Y-90365200D01*
X111622000Y-101120800D02*
X114436900Y-101120800D01*
X150617100Y-94310300D02*
X143515000Y-87208200D01*
X143515000Y-87208200D02*
X137770500Y-87208200D01*
X118599600Y-96691300D02*
X118783100Y-96507800D01*
X154188300Y-101785200D02*
X154188300Y-100232300D01*
X154188300Y-100232300D02*
X154948000Y-99472600D01*
X123170100Y-95812100D02*
X123170100Y-95623400D01*
X154948000Y-99472600D02*
X154948000Y-97905000D01*
X148787200Y-107186300D02*
X154188300Y-101785200D01*
X122474400Y-100499500D02*
X129161200Y-107186300D01*
X118783100Y-96507800D02*
X122474400Y-96507800D01*
X122474400Y-96507800D02*
X122474400Y-100499500D01*
X122474400Y-96507800D02*
X123170100Y-95812100D01*
X129161200Y-107186300D02*
X148787200Y-107186300D01*
X123072700Y-100356300D02*
X129452400Y-106736000D01*
X129452400Y-106736000D02*
X148591400Y-106736000D01*
X153738000Y-99382200D02*
X154217800Y-98902400D01*
X153738000Y-101589400D02*
X153738000Y-99382200D01*
X123203500Y-96983500D02*
X123072700Y-97114300D01*
X148591400Y-106736000D02*
X153738000Y-101589400D01*
X123072700Y-97114300D02*
X123072700Y-100356300D01*
X120810000Y-100497900D02*
X121835900Y-100497900D01*
X154941000Y-101744800D02*
X154941000Y-101055500D01*
X121835900Y-100497900D02*
X128974600Y-107636600D01*
X120810000Y-97263800D02*
X120810000Y-100497900D01*
X128974600Y-107636600D02*
X149049200Y-107636600D01*
X120810000Y-100497900D02*
X115162300Y-100497900D01*
X149049200Y-107636600D02*
X154941000Y-101744800D01*
X123817900Y-100424800D02*
X129678800Y-106285700D01*
X129678800Y-106285700D02*
X148395600Y-106285700D01*
X123817900Y-98890300D02*
X123817900Y-100424800D01*
X152375100Y-102306200D02*
X152375100Y-101878800D01*
X148395600Y-106285700D02*
X152375100Y-102306200D01*
D11*
X131238000Y-52713800D02*
X132497600Y-53973400D01*
X132497600Y-53973400D02*
X139445800Y-53973400D01*
X139445800Y-53973400D02*
X141220800Y-55748400D01*
X153820300Y-51258700D02*
X153094100Y-50532500D01*
X153094100Y-50532500D02*
X117493600Y-50532500D01*
X120482300Y-55081300D02*
X123070500Y-55081300D01*
X123070500Y-55081300D02*
X125438000Y-52713800D01*
X125438000Y-52713800D02*
X131238000Y-52713800D01*
X115468100Y-53244600D02*
X117304800Y-55081300D01*
X115468100Y-52558000D02*
X115468100Y-53244600D01*
X120482300Y-55087500D02*
X120482300Y-55081300D01*
X117493600Y-50532500D02*
X115468100Y-52558000D01*
X117304800Y-55081300D02*
X120482300Y-55081300D01*
D12*
X146386900Y-52020700D02*
X151353500Y-56987300D01*
X151353500Y-62911900D02*
X149909200Y-64356200D01*
X146386900Y-51750000D02*
X146386900Y-52020700D01*
X151353500Y-56987300D02*
X151353500Y-62911900D01*
X149909200Y-64356200D02*
X149909200Y-66715000D01*
X117833400Y-72249300D02*
X119571600Y-73987500D01*
X156894500Y-56095400D02*
X156084100Y-55285000D01*
X156894500Y-72505100D02*
X156894500Y-56095400D01*
X119571600Y-73987500D02*
X155412100Y-73987500D01*
X155412100Y-73987500D02*
X156894500Y-72505100D01*
X127984500Y-68954500D02*
X124655300Y-65625300D01*
X128373500Y-68954500D02*
X127984500Y-68954500D01*
X124655300Y-63589800D02*
X124482900Y-63417400D01*
X124655300Y-65625300D02*
X124655300Y-63589800D01*
X124482900Y-60670000D02*
X125111500Y-60041400D01*
X124482900Y-63417400D02*
X124482900Y-60670000D01*
X129098800Y-68017100D02*
X128380700Y-67299000D01*
X128380700Y-67299000D02*
X128380700Y-63325300D01*
X125836900Y-59243200D02*
X126491500Y-58588600D01*
X125836900Y-60781500D02*
X125836900Y-59243200D01*
X128380700Y-63325300D02*
X125836900Y-60781500D01*
X129160400Y-69741400D02*
X129098800Y-69679800D01*
X129098800Y-69679800D02*
X129098800Y-68017100D01*
X129885700Y-69440900D02*
X129549100Y-69104300D01*
X129549100Y-69104300D02*
X129549100Y-67830500D01*
X129881100Y-70462100D02*
X129885700Y-70457500D01*
X129885700Y-70457500D02*
X129885700Y-69440900D01*
X129549100Y-67830500D02*
X128831000Y-67112400D01*
X128831000Y-62557600D02*
X126562200Y-60288800D01*
X128831000Y-67112400D02*
X128831000Y-62557600D01*
X125208200Y-65152400D02*
X127894200Y-67838400D01*
X125208200Y-61642700D02*
X125208200Y-65152400D01*
X127140000Y-53464200D02*
X129861900Y-56186100D01*
X129861900Y-66869500D02*
X131331800Y-68339400D01*
X129861900Y-56186100D02*
X129861900Y-66869500D01*
X131331800Y-68339400D02*
X131331800Y-70543900D01*
X128240300Y-53464300D02*
X130312100Y-55536100D01*
X128232800Y-53464200D02*
X128240300Y-53464200D01*
X128240300Y-53464200D02*
X128240300Y-53464300D01*
X130312200Y-55536100D02*
X130312200Y-66682900D01*
X130312100Y-55536100D02*
X130312200Y-55536100D01*
X130312200Y-66682900D02*
X132750000Y-69120700D01*
X132750000Y-69120700D02*
X132750000Y-70543300D01*
X134691200Y-70560400D02*
X139193200Y-66058400D01*
X134296600Y-70560400D02*
X134691200Y-70560400D01*
X139193200Y-66058400D02*
X139193200Y-54785200D01*
X129265900Y-53464200D02*
X130762600Y-54960900D01*
X130762600Y-54960900D02*
X130762600Y-65973400D01*
X130762600Y-65973400D02*
X134333400Y-69544200D01*
X129298900Y-66943400D02*
X129298900Y-60131800D01*
X130274500Y-68555400D02*
X130274500Y-67919000D01*
X129298900Y-60131800D02*
X126417100Y-57250000D01*
X130274500Y-67919000D02*
X129298900Y-66943400D01*
X116226100Y-52867600D02*
X116852600Y-53494100D01*
X123094800Y-53494100D02*
X124400400Y-52188500D01*
X141946100Y-56048900D02*
X141946100Y-54520400D01*
X139000000Y-70522900D02*
X140821200Y-68701700D01*
X140821200Y-68701700D02*
X140821200Y-57173800D01*
X124400400Y-52188500D02*
X136725100Y-52188500D01*
X116852600Y-53494100D02*
X123094800Y-53494100D01*
X138034600Y-53498000D02*
X140923700Y-53498000D01*
X144777200Y-54520400D02*
X150621800Y-60365000D01*
X140923700Y-53498000D02*
X141946100Y-54520400D01*
X141946100Y-54520400D02*
X144777200Y-54520400D01*
X140821200Y-57173800D02*
X141946100Y-56048900D01*
X136725100Y-52188500D02*
X138034600Y-53498000D01*
X154909900Y-59141000D02*
X154909900Y-61567000D01*
X154909900Y-58263000D02*
X154909900Y-59141000D01*
X151619100Y-64857800D02*
X151619100Y-67385200D01*
X120470800Y-52768700D02*
X122214900Y-51024600D01*
X147366200Y-51024600D02*
X150890300Y-54548700D01*
X141668200Y-70695900D02*
X141529200Y-70556900D01*
X151195600Y-54548700D02*
X154909900Y-58263000D01*
X150890300Y-54548700D02*
X151195600Y-54548700D01*
X154909900Y-61567000D02*
X151619100Y-64857800D01*
X122214900Y-51024600D02*
X147366200Y-51024600D01*
X148308400Y-70695900D02*
X141668200Y-70695900D01*
X151619100Y-67385200D02*
X148308400Y-70695900D01*
X151137900Y-64625300D02*
X154049800Y-61713400D01*
X142808900Y-70094200D02*
X148233000Y-70094200D01*
X148233000Y-70094200D02*
X151137900Y-67189300D01*
X151137900Y-67189300D02*
X151137900Y-64625300D01*
X154049800Y-61713400D02*
X154049800Y-58467600D01*
X142681100Y-69966400D02*
X142808900Y-70094200D01*
X151301600Y-55691300D02*
X151849800Y-56239500D01*
X150687600Y-66993400D02*
X148037100Y-69643900D01*
X143863100Y-69643900D02*
X143406400Y-69187200D01*
X148037100Y-69643900D02*
X143863100Y-69643900D01*
X151849800Y-56239500D02*
X151849800Y-63052500D01*
X150687600Y-64214700D02*
X150687600Y-66993400D01*
X151849800Y-63052500D02*
X150687600Y-64214700D01*
X143353900Y-56796100D02*
X143353900Y-64574400D01*
X143353900Y-64574400D02*
X144880900Y-66101400D01*
X145307400Y-67605600D02*
X142598600Y-64896800D01*
X142598600Y-64896800D02*
X142598600Y-55337900D01*
X142598600Y-55337900D02*
X142686500Y-55250000D01*
X147536200Y-68918600D02*
X145578900Y-68918600D01*
X145578900Y-68918600D02*
X141717700Y-65057400D01*
X141717700Y-65057400D02*
X141717700Y-57316100D01*
X128399100Y-73086900D02*
X151126200Y-73086900D01*
X151126200Y-73086900D02*
X151969200Y-72243900D01*
X123611900Y-68299700D02*
X128399100Y-73086900D01*
X150936900Y-53505300D02*
X155693700Y-58262100D01*
X155693700Y-67543900D02*
X153750000Y-69487600D01*
X155693700Y-58262100D02*
X155693700Y-67543900D01*
X153750000Y-69487600D02*
X153750000Y-72209200D01*
X154786600Y-69591600D02*
X154786600Y-72231200D01*
X154786600Y-72231200D02*
X154776300Y-72241500D01*
X114436900Y-66120800D02*
X114436900Y-64821200D01*
X114436900Y-66120800D02*
X121853300Y-73537200D01*
X154829100Y-73537200D02*
X156153400Y-72212900D01*
X121853300Y-73537200D02*
X154829100Y-73537200D01*
X114436900Y-64821200D02*
X123892900Y-55365200D01*
X123892900Y-55365200D02*
X126603600Y-55365200D01*
X111622000Y-66120800D02*
X114436900Y-66120800D01*
X150617100Y-59310300D02*
X143515000Y-52208200D01*
X143515000Y-52208200D02*
X137770500Y-52208200D01*
X118599600Y-61691300D02*
X118783100Y-61507800D01*
X154188300Y-66785200D02*
X154188300Y-65232300D01*
X154188300Y-65232300D02*
X154948000Y-64472600D01*
X123170100Y-60812100D02*
X123170100Y-60623400D01*
X154948000Y-64472600D02*
X154948000Y-62905000D01*
X148787200Y-72186300D02*
X154188300Y-66785200D01*
X122474400Y-65499500D02*
X129161200Y-72186300D01*
X118783100Y-61507800D02*
X122474400Y-61507800D01*
X122474400Y-61507800D02*
X122474400Y-65499500D01*
X122474400Y-61507800D02*
X123170100Y-60812100D01*
X129161200Y-72186300D02*
X148787200Y-72186300D01*
X123072700Y-65356300D02*
X129452400Y-71736000D01*
X129452400Y-71736000D02*
X148591400Y-71736000D01*
X153738000Y-64382200D02*
X154217800Y-63902400D01*
X153738000Y-66589400D02*
X153738000Y-64382200D01*
X123203500Y-61983500D02*
X123072700Y-62114300D01*
X148591400Y-71736000D02*
X153738000Y-66589400D01*
X123072700Y-62114300D02*
X123072700Y-65356300D01*
X120810000Y-65497900D02*
X121835900Y-65497900D01*
X154941000Y-66744800D02*
X154941000Y-66055500D01*
X121835900Y-65497900D02*
X128974600Y-72636600D01*
X120810000Y-62263800D02*
X120810000Y-65497900D01*
X128974600Y-72636600D02*
X149049200Y-72636600D01*
X120810000Y-65497900D02*
X115162300Y-65497900D01*
X149049200Y-72636600D02*
X154941000Y-66744800D01*
X123817900Y-65424800D02*
X129678800Y-71285700D01*
X129678800Y-71285700D02*
X148395600Y-71285700D01*
X123817900Y-63890300D02*
X123817900Y-65424800D01*
X152375100Y-67306200D02*
X152375100Y-66878800D01*
X148395600Y-71285700D02*
X152375100Y-67306200D01*
D11*
G04 #@! TO.N,GND*
X70482300Y-125081300D02*
X73070500Y-125081300D01*
X73070500Y-125081300D02*
X75438000Y-122713800D01*
X75438000Y-122713800D02*
X81238000Y-122713800D01*
X81238000Y-122713800D02*
X82497600Y-123973400D01*
X82497600Y-123973400D02*
X89445800Y-123973400D01*
X89445800Y-123973400D02*
X91220800Y-125748400D01*
X103820300Y-121258700D02*
X103094100Y-120532500D01*
X103094100Y-120532500D02*
X67493600Y-120532500D01*
X67493600Y-120532500D02*
X65468100Y-122558000D01*
X65468100Y-122558000D02*
X65468100Y-123244600D01*
X65468100Y-123244600D02*
X67304800Y-125081300D01*
X67304800Y-125081300D02*
X70482300Y-125081300D01*
X70482300Y-125087500D02*
X70482300Y-125081300D01*
D12*
G04 #@! TO.N,#RD*
X96386900Y-121750000D02*
X96386900Y-122020700D01*
X96386900Y-122020700D02*
X101353500Y-126987300D01*
X101353500Y-126987300D02*
X101353500Y-132911900D01*
X101353500Y-132911900D02*
X99909200Y-134356200D01*
X99909200Y-134356200D02*
X99909200Y-136715000D01*
G04 #@! TO.N,#RCS*
X67833400Y-142249300D02*
X69571600Y-143987500D01*
X69571600Y-143987500D02*
X105412100Y-143987500D01*
X105412100Y-143987500D02*
X106894500Y-142505100D01*
X106894500Y-142505100D02*
X106894500Y-126095400D01*
X106894500Y-126095400D02*
X106084100Y-125285000D01*
G04 #@! TO.N,A4*
X78373500Y-138954500D02*
X77984500Y-138954500D01*
X77984500Y-138954500D02*
X74655300Y-135625300D01*
X74655300Y-135625300D02*
X74655300Y-133589800D01*
X74655300Y-133589800D02*
X74482900Y-133417400D01*
X74482900Y-133417400D02*
X74482900Y-130670000D01*
X74482900Y-130670000D02*
X75111500Y-130041400D01*
G04 #@! TO.N,A5*
X79160400Y-139741400D02*
X79098800Y-139679800D01*
X79098800Y-139679800D02*
X79098800Y-138017100D01*
X79098800Y-138017100D02*
X78380700Y-137299000D01*
X78380700Y-137299000D02*
X78380700Y-133325300D01*
X78380700Y-133325300D02*
X75836900Y-130781500D01*
X75836900Y-130781500D02*
X75836900Y-129243200D01*
X75836900Y-129243200D02*
X76491500Y-128588600D01*
G04 #@! TO.N,A6*
X79881100Y-140462100D02*
X79885700Y-140457500D01*
X79885700Y-140457500D02*
X79885700Y-139440900D01*
X79885700Y-139440900D02*
X79549100Y-139104300D01*
X79549100Y-139104300D02*
X79549100Y-137830500D01*
X79549100Y-137830500D02*
X78831000Y-137112400D01*
X78831000Y-137112400D02*
X78831000Y-132557600D01*
X78831000Y-132557600D02*
X76562200Y-130288800D01*
G04 #@! TO.N,A7*
X75208200Y-131642700D02*
X75208200Y-135152400D01*
X75208200Y-135152400D02*
X77894200Y-137838400D01*
G04 #@! TO.N,A8*
X77140000Y-123464200D02*
X79861900Y-126186100D01*
X79861900Y-126186100D02*
X79861900Y-136869500D01*
X79861900Y-136869500D02*
X81331800Y-138339400D01*
X81331800Y-138339400D02*
X81331800Y-140543900D01*
G04 #@! TO.N,A9*
X78232800Y-123464200D02*
X78240300Y-123464200D01*
X78240300Y-123464200D02*
X78240300Y-123464300D01*
X78240300Y-123464300D02*
X80312100Y-125536100D01*
X80312100Y-125536100D02*
X80312200Y-125536100D01*
X80312200Y-125536100D02*
X80312200Y-136682900D01*
X80312200Y-136682900D02*
X82750000Y-139120700D01*
X82750000Y-139120700D02*
X82750000Y-140543300D01*
G04 #@! TO.N,A10*
X84296600Y-140560400D02*
X84691200Y-140560400D01*
X84691200Y-140560400D02*
X89193200Y-136058400D01*
X89193200Y-136058400D02*
X89193200Y-124785200D01*
G04 #@! TO.N,A11*
X79265900Y-123464200D02*
X80762600Y-124960900D01*
X80762600Y-124960900D02*
X80762600Y-135973400D01*
X80762600Y-135973400D02*
X84333400Y-139544200D01*
G04 #@! TO.N,A12*
X80274500Y-138555400D02*
X80274500Y-137919000D01*
X80274500Y-137919000D02*
X79298900Y-136943400D01*
X79298900Y-136943400D02*
X79298900Y-130131800D01*
X79298900Y-130131800D02*
X76417100Y-127250000D01*
G04 #@! TO.N,(A13*
X91946100Y-124520400D02*
X94777200Y-124520400D01*
X94777200Y-124520400D02*
X100621800Y-130365000D01*
X66226100Y-122867600D02*
X66852600Y-123494100D01*
X66852600Y-123494100D02*
X73094800Y-123494100D01*
X73094800Y-123494100D02*
X74400400Y-122188500D01*
X74400400Y-122188500D02*
X86725100Y-122188500D01*
X86725100Y-122188500D02*
X88034600Y-123498000D01*
X88034600Y-123498000D02*
X90923700Y-123498000D01*
X90923700Y-123498000D02*
X91946100Y-124520400D01*
X89000000Y-140522900D02*
X90821200Y-138701700D01*
X90821200Y-138701700D02*
X90821200Y-127173800D01*
X90821200Y-127173800D02*
X91946100Y-126048900D01*
X91946100Y-126048900D02*
X91946100Y-124520400D01*
G04 #@! TO.N,(A14*
X104909900Y-129141000D02*
X104909900Y-131567000D01*
X104909900Y-131567000D02*
X101619100Y-134857800D01*
X101619100Y-134857800D02*
X101619100Y-137385200D01*
X101619100Y-137385200D02*
X98308400Y-140695900D01*
X98308400Y-140695900D02*
X91668200Y-140695900D01*
X91668200Y-140695900D02*
X91529200Y-140556900D01*
X70470800Y-122768700D02*
X72214900Y-121024600D01*
X72214900Y-121024600D02*
X97366200Y-121024600D01*
X97366200Y-121024600D02*
X100890300Y-124548700D01*
X100890300Y-124548700D02*
X101195600Y-124548700D01*
X101195600Y-124548700D02*
X104909900Y-128263000D01*
X104909900Y-128263000D02*
X104909900Y-129141000D01*
G04 #@! TO.N,(A15*
X92681100Y-139966400D02*
X92808900Y-140094200D01*
X92808900Y-140094200D02*
X98233000Y-140094200D01*
X98233000Y-140094200D02*
X101137900Y-137189300D01*
X101137900Y-137189300D02*
X101137900Y-134625300D01*
X101137900Y-134625300D02*
X104049800Y-131713400D01*
X104049800Y-131713400D02*
X104049800Y-128467600D01*
G04 #@! TO.N,D0*
X101301600Y-125691300D02*
X101849800Y-126239500D01*
X101849800Y-126239500D02*
X101849800Y-133052500D01*
X101849800Y-133052500D02*
X100687600Y-134214700D01*
X100687600Y-134214700D02*
X100687600Y-136993400D01*
X100687600Y-136993400D02*
X98037100Y-139643900D01*
X98037100Y-139643900D02*
X93863100Y-139643900D01*
X93863100Y-139643900D02*
X93406400Y-139187200D01*
G04 #@! TO.N,D2*
X93353900Y-126796100D02*
X93353900Y-134574400D01*
X93353900Y-134574400D02*
X94880900Y-136101400D01*
G04 #@! TO.N,D3*
X95307400Y-137605600D02*
X92598600Y-134896800D01*
X92598600Y-134896800D02*
X92598600Y-125337900D01*
X92598600Y-125337900D02*
X92686500Y-125250000D01*
G04 #@! TO.N,D5*
X97536200Y-138918600D02*
X95578900Y-138918600D01*
X95578900Y-138918600D02*
X91717700Y-135057400D01*
X91717700Y-135057400D02*
X91717700Y-127316100D01*
G04 #@! TO.N,D6*
X73611900Y-138299700D02*
X78399100Y-143086900D01*
X78399100Y-143086900D02*
X101126200Y-143086900D01*
X101126200Y-143086900D02*
X101969200Y-142243900D01*
G04 #@! TO.N,D7*
X100936900Y-123505300D02*
X105693700Y-128262100D01*
X105693700Y-128262100D02*
X105693700Y-137543900D01*
X105693700Y-137543900D02*
X103750000Y-139487600D01*
X103750000Y-139487600D02*
X103750000Y-142209200D01*
G04 #@! TO.N,#RS*
X104786600Y-139591600D02*
X104786600Y-142231200D01*
X104786600Y-142231200D02*
X104776300Y-142241500D01*
G04 #@! TO.N,VIN*
X64436900Y-136120800D02*
X71853300Y-143537200D01*
X71853300Y-143537200D02*
X104829100Y-143537200D01*
X104829100Y-143537200D02*
X106153400Y-142212900D01*
X64436900Y-136120800D02*
X64436900Y-134821200D01*
X64436900Y-134821200D02*
X73892900Y-125365200D01*
X73892900Y-125365200D02*
X76603600Y-125365200D01*
X61622000Y-136120800D02*
X64436900Y-136120800D01*
G04 #@! TO.N,A14*
X100617100Y-129310300D02*
X93515000Y-122208200D01*
X93515000Y-122208200D02*
X87770500Y-122208200D01*
G04 #@! TO.N,A15*
X72474400Y-131507800D02*
X72474400Y-135499500D01*
X72474400Y-135499500D02*
X79161200Y-142186300D01*
X79161200Y-142186300D02*
X98787200Y-142186300D01*
X98787200Y-142186300D02*
X104188300Y-136785200D01*
X104188300Y-136785200D02*
X104188300Y-135232300D01*
X104188300Y-135232300D02*
X104948000Y-134472600D01*
X104948000Y-134472600D02*
X104948000Y-132905000D01*
X72474400Y-131507800D02*
X73170100Y-130812100D01*
X73170100Y-130812100D02*
X73170100Y-130623400D01*
X68599600Y-131691300D02*
X68783100Y-131507800D01*
X68783100Y-131507800D02*
X72474400Y-131507800D01*
G04 #@! TO.N,A16*
X73203500Y-131983500D02*
X73072700Y-132114300D01*
X73072700Y-132114300D02*
X73072700Y-135356300D01*
X73072700Y-135356300D02*
X79452400Y-141736000D01*
X79452400Y-141736000D02*
X98591400Y-141736000D01*
X98591400Y-141736000D02*
X103738000Y-136589400D01*
X103738000Y-136589400D02*
X103738000Y-134382200D01*
X103738000Y-134382200D02*
X104217800Y-133902400D01*
G04 #@! TO.N,A17*
X70810000Y-135497900D02*
X71835900Y-135497900D01*
X71835900Y-135497900D02*
X78974600Y-142636600D01*
X78974600Y-142636600D02*
X99049200Y-142636600D01*
X99049200Y-142636600D02*
X104941000Y-136744800D01*
X104941000Y-136744800D02*
X104941000Y-136055500D01*
X70810000Y-135497900D02*
X65162300Y-135497900D01*
X70810000Y-132263800D02*
X70810000Y-135497900D01*
G04 #@! TO.N,A18*
X73817900Y-133890300D02*
X73817900Y-135424800D01*
X73817900Y-135424800D02*
X79678800Y-141285700D01*
X79678800Y-141285700D02*
X98395600Y-141285700D01*
X98395600Y-141285700D02*
X102375100Y-137306200D01*
X102375100Y-137306200D02*
X102375100Y-136878800D01*
G04 #@! TD*
D13*
G04 #@! TO.N,GND*
G36*
X109290001Y-140703453D02*
X109238119Y-140738119D01*
X109081195Y-140972972D01*
X109026091Y-141250000D01*
X109040001Y-141319931D01*
X109040000Y-149290000D01*
X60960000Y-149290000D01*
X60960000Y-141319925D01*
X60973909Y-141250000D01*
X60959568Y-141177900D01*
X60918805Y-140972972D01*
X60761881Y-140738119D01*
X60710000Y-140703453D01*
X60710000Y-136623623D01*
X60744569Y-136707080D01*
X61035720Y-136998231D01*
X61416126Y-137155800D01*
X61827874Y-137155800D01*
X62208280Y-136998231D01*
X62325711Y-136880800D01*
X64122099Y-136880800D01*
X70468797Y-143227500D01*
X69886402Y-143227500D01*
X68868400Y-142209499D01*
X68868400Y-142043426D01*
X68710831Y-141663020D01*
X68419680Y-141371869D01*
X68039274Y-141214300D01*
X67627526Y-141214300D01*
X67247120Y-141371869D01*
X66955969Y-141663020D01*
X66798400Y-142043426D01*
X66798400Y-142455174D01*
X66955969Y-142835580D01*
X67247120Y-143126731D01*
X67627526Y-143284300D01*
X67793599Y-143284300D01*
X68981271Y-144471973D01*
X69023671Y-144535429D01*
X69275063Y-144703404D01*
X69496748Y-144747500D01*
X69496752Y-144747500D01*
X69571599Y-144762388D01*
X69646446Y-144747500D01*
X105337253Y-144747500D01*
X105412100Y-144762388D01*
X105486947Y-144747500D01*
X105486952Y-144747500D01*
X105708637Y-144703404D01*
X105960029Y-144535429D01*
X106002431Y-144471970D01*
X107378973Y-143095429D01*
X107442429Y-143053029D01*
X107610404Y-142801637D01*
X107654500Y-142579952D01*
X107654500Y-142579948D01*
X107669388Y-142505101D01*
X107654500Y-142430254D01*
X107654500Y-126170248D01*
X107669388Y-126095400D01*
X107654500Y-126020552D01*
X107654500Y-126020548D01*
X107610404Y-125798863D01*
X107610404Y-125798862D01*
X107484829Y-125610927D01*
X107442429Y-125547471D01*
X107378973Y-125505071D01*
X107119100Y-125245198D01*
X107119100Y-125079126D01*
X106961531Y-124698720D01*
X106670380Y-124407569D01*
X106289974Y-124250000D01*
X105878226Y-124250000D01*
X105497820Y-124407569D01*
X105206669Y-124698720D01*
X105049100Y-125079126D01*
X105049100Y-125490874D01*
X105206669Y-125871280D01*
X105497820Y-126162431D01*
X105878226Y-126320000D01*
X106044298Y-126320000D01*
X106134501Y-126410203D01*
X106134501Y-127628099D01*
X101971900Y-123465499D01*
X101971900Y-123299426D01*
X101814331Y-122919020D01*
X101523180Y-122627869D01*
X101142774Y-122470300D01*
X100731026Y-122470300D01*
X100350620Y-122627869D01*
X100197445Y-122781044D01*
X98151401Y-120735000D01*
X109290000Y-120735000D01*
X109290001Y-140703453D01*
X109290001Y-140703453D01*
G37*
X109290001Y-140703453D02*
X109238119Y-140738119D01*
X109081195Y-140972972D01*
X109026091Y-141250000D01*
X109040001Y-141319931D01*
X109040000Y-149290000D01*
X60960000Y-149290000D01*
X60960000Y-141319925D01*
X60973909Y-141250000D01*
X60959568Y-141177900D01*
X60918805Y-140972972D01*
X60761881Y-140738119D01*
X60710000Y-140703453D01*
X60710000Y-136623623D01*
X60744569Y-136707080D01*
X61035720Y-136998231D01*
X61416126Y-137155800D01*
X61827874Y-137155800D01*
X62208280Y-136998231D01*
X62325711Y-136880800D01*
X64122099Y-136880800D01*
X70468797Y-143227500D01*
X69886402Y-143227500D01*
X68868400Y-142209499D01*
X68868400Y-142043426D01*
X68710831Y-141663020D01*
X68419680Y-141371869D01*
X68039274Y-141214300D01*
X67627526Y-141214300D01*
X67247120Y-141371869D01*
X66955969Y-141663020D01*
X66798400Y-142043426D01*
X66798400Y-142455174D01*
X66955969Y-142835580D01*
X67247120Y-143126731D01*
X67627526Y-143284300D01*
X67793599Y-143284300D01*
X68981271Y-144471973D01*
X69023671Y-144535429D01*
X69275063Y-144703404D01*
X69496748Y-144747500D01*
X69496752Y-144747500D01*
X69571599Y-144762388D01*
X69646446Y-144747500D01*
X105337253Y-144747500D01*
X105412100Y-144762388D01*
X105486947Y-144747500D01*
X105486952Y-144747500D01*
X105708637Y-144703404D01*
X105960029Y-144535429D01*
X106002431Y-144471970D01*
X107378973Y-143095429D01*
X107442429Y-143053029D01*
X107610404Y-142801637D01*
X107654500Y-142579952D01*
X107654500Y-142579948D01*
X107669388Y-142505101D01*
X107654500Y-142430254D01*
X107654500Y-126170248D01*
X107669388Y-126095400D01*
X107654500Y-126020552D01*
X107654500Y-126020548D01*
X107610404Y-125798863D01*
X107610404Y-125798862D01*
X107484829Y-125610927D01*
X107442429Y-125547471D01*
X107378973Y-125505071D01*
X107119100Y-125245198D01*
X107119100Y-125079126D01*
X106961531Y-124698720D01*
X106670380Y-124407569D01*
X106289974Y-124250000D01*
X105878226Y-124250000D01*
X105497820Y-124407569D01*
X105206669Y-124698720D01*
X105049100Y-125079126D01*
X105049100Y-125490874D01*
X105206669Y-125871280D01*
X105497820Y-126162431D01*
X105878226Y-126320000D01*
X106044298Y-126320000D01*
X106134501Y-126410203D01*
X106134501Y-127628099D01*
X101971900Y-123465499D01*
X101971900Y-123299426D01*
X101814331Y-122919020D01*
X101523180Y-122627869D01*
X101142774Y-122470300D01*
X100731026Y-122470300D01*
X100350620Y-122627869D01*
X100197445Y-122781044D01*
X98151401Y-120735000D01*
X109290000Y-120735000D01*
X109290001Y-140703453D01*
G36*
X91186101Y-124835203D02*
X91186100Y-125734098D01*
X90336728Y-126583471D01*
X90273272Y-126625871D01*
X90230872Y-126689327D01*
X90230871Y-126689328D01*
X90105297Y-126877263D01*
X90046312Y-127173800D01*
X90061201Y-127248652D01*
X90061200Y-138386898D01*
X88960199Y-139487900D01*
X88794126Y-139487900D01*
X88413720Y-139645469D01*
X88122569Y-139936620D01*
X87965000Y-140317026D01*
X87965000Y-140525700D01*
X85800701Y-140525700D01*
X89677676Y-136648727D01*
X89741129Y-136606329D01*
X89783527Y-136542876D01*
X89783529Y-136542874D01*
X89876942Y-136403071D01*
X89909104Y-136354937D01*
X89953200Y-136133252D01*
X89953200Y-136133248D01*
X89968088Y-136058401D01*
X89953200Y-135983554D01*
X89953200Y-125488911D01*
X90070631Y-125371480D01*
X90228200Y-124991074D01*
X90228200Y-124579326D01*
X90095103Y-124258000D01*
X90608899Y-124258000D01*
X91186101Y-124835203D01*
X91186101Y-124835203D01*
G37*
X91186101Y-124835203D02*
X91186100Y-125734098D01*
X90336728Y-126583471D01*
X90273272Y-126625871D01*
X90230872Y-126689327D01*
X90230871Y-126689328D01*
X90105297Y-126877263D01*
X90046312Y-127173800D01*
X90061201Y-127248652D01*
X90061200Y-138386898D01*
X88960199Y-139487900D01*
X88794126Y-139487900D01*
X88413720Y-139645469D01*
X88122569Y-139936620D01*
X87965000Y-140317026D01*
X87965000Y-140525700D01*
X85800701Y-140525700D01*
X89677676Y-136648727D01*
X89741129Y-136606329D01*
X89783527Y-136542876D01*
X89783529Y-136542874D01*
X89876942Y-136403071D01*
X89909104Y-136354937D01*
X89953200Y-136133252D01*
X89953200Y-136133248D01*
X89968088Y-136058401D01*
X89953200Y-135983554D01*
X89953200Y-125488911D01*
X90070631Y-125371480D01*
X90228200Y-124991074D01*
X90228200Y-124579326D01*
X90095103Y-124258000D01*
X90608899Y-124258000D01*
X91186101Y-124835203D01*
G36*
X70430999Y-121733700D02*
X70264926Y-121733700D01*
X69884520Y-121891269D01*
X69593369Y-122182420D01*
X69435800Y-122562826D01*
X69435800Y-122734100D01*
X67261100Y-122734100D01*
X67261100Y-122661726D01*
X67103531Y-122281320D01*
X66812380Y-121990169D01*
X66431974Y-121832600D01*
X66020226Y-121832600D01*
X65639820Y-121990169D01*
X65348669Y-122281320D01*
X65191100Y-122661726D01*
X65191100Y-123073474D01*
X65348669Y-123453880D01*
X65639820Y-123745031D01*
X66020226Y-123902600D01*
X66186298Y-123902600D01*
X66262271Y-123978573D01*
X66304671Y-124042029D01*
X66368127Y-124084429D01*
X66556062Y-124210004D01*
X66604205Y-124219580D01*
X66777748Y-124254100D01*
X66777752Y-124254100D01*
X66852600Y-124268988D01*
X66927448Y-124254100D01*
X73019953Y-124254100D01*
X73094800Y-124268988D01*
X73169647Y-124254100D01*
X73169652Y-124254100D01*
X73391337Y-124210004D01*
X73642729Y-124042029D01*
X73685131Y-123978570D01*
X74715202Y-122948500D01*
X76233334Y-122948500D01*
X76105000Y-123258326D01*
X76105000Y-123670074D01*
X76262569Y-124050480D01*
X76542289Y-124330200D01*
X76397726Y-124330200D01*
X76017320Y-124487769D01*
X75899889Y-124605200D01*
X73967746Y-124605200D01*
X73892899Y-124590312D01*
X73818052Y-124605200D01*
X73818048Y-124605200D01*
X73596363Y-124649296D01*
X73596361Y-124649297D01*
X73596362Y-124649297D01*
X73408426Y-124774871D01*
X73408424Y-124774873D01*
X73344971Y-124817271D01*
X73302573Y-124880724D01*
X63952428Y-134230871D01*
X63888972Y-134273271D01*
X63846572Y-134336727D01*
X63846571Y-134336728D01*
X63827889Y-134364688D01*
X63720997Y-134524663D01*
X63684351Y-134708897D01*
X63662012Y-134821200D01*
X63676901Y-134896051D01*
X63676901Y-135360800D01*
X62325711Y-135360800D01*
X62208280Y-135243369D01*
X61827874Y-135085800D01*
X61416126Y-135085800D01*
X61035720Y-135243369D01*
X60744569Y-135534520D01*
X60710000Y-135617977D01*
X60710000Y-120735000D01*
X71429698Y-120735000D01*
X70430999Y-121733700D01*
X70430999Y-121733700D01*
G37*
X70430999Y-121733700D02*
X70264926Y-121733700D01*
X69884520Y-121891269D01*
X69593369Y-122182420D01*
X69435800Y-122562826D01*
X69435800Y-122734100D01*
X67261100Y-122734100D01*
X67261100Y-122661726D01*
X67103531Y-122281320D01*
X66812380Y-121990169D01*
X66431974Y-121832600D01*
X66020226Y-121832600D01*
X65639820Y-121990169D01*
X65348669Y-122281320D01*
X65191100Y-122661726D01*
X65191100Y-123073474D01*
X65348669Y-123453880D01*
X65639820Y-123745031D01*
X66020226Y-123902600D01*
X66186298Y-123902600D01*
X66262271Y-123978573D01*
X66304671Y-124042029D01*
X66368127Y-124084429D01*
X66556062Y-124210004D01*
X66604205Y-124219580D01*
X66777748Y-124254100D01*
X66777752Y-124254100D01*
X66852600Y-124268988D01*
X66927448Y-124254100D01*
X73019953Y-124254100D01*
X73094800Y-124268988D01*
X73169647Y-124254100D01*
X73169652Y-124254100D01*
X73391337Y-124210004D01*
X73642729Y-124042029D01*
X73685131Y-123978570D01*
X74715202Y-122948500D01*
X76233334Y-122948500D01*
X76105000Y-123258326D01*
X76105000Y-123670074D01*
X76262569Y-124050480D01*
X76542289Y-124330200D01*
X76397726Y-124330200D01*
X76017320Y-124487769D01*
X75899889Y-124605200D01*
X73967746Y-124605200D01*
X73892899Y-124590312D01*
X73818052Y-124605200D01*
X73818048Y-124605200D01*
X73596363Y-124649296D01*
X73596361Y-124649297D01*
X73596362Y-124649297D01*
X73408426Y-124774871D01*
X73408424Y-124774873D01*
X73344971Y-124817271D01*
X73302573Y-124880724D01*
X63952428Y-134230871D01*
X63888972Y-134273271D01*
X63846572Y-134336727D01*
X63846571Y-134336728D01*
X63827889Y-134364688D01*
X63720997Y-134524663D01*
X63684351Y-134708897D01*
X63662012Y-134821200D01*
X63676901Y-134896051D01*
X63676901Y-135360800D01*
X62325711Y-135360800D01*
X62208280Y-135243369D01*
X61827874Y-135085800D01*
X61416126Y-135085800D01*
X61035720Y-135243369D01*
X60744569Y-135534520D01*
X60710000Y-135617977D01*
X60710000Y-120735000D01*
X71429698Y-120735000D01*
X70430999Y-121733700D01*
G36*
X87444270Y-123982472D02*
X87486671Y-124045929D01*
X87550127Y-124088329D01*
X87738062Y-124213904D01*
X87786205Y-124223480D01*
X87959748Y-124258000D01*
X87959752Y-124258000D01*
X88034600Y-124272888D01*
X88109448Y-124258000D01*
X88291297Y-124258000D01*
X88158200Y-124579326D01*
X88158200Y-124991074D01*
X88315769Y-125371480D01*
X88433201Y-125488912D01*
X88433200Y-132027321D01*
X87897336Y-131432183D01*
X87165000Y-130900110D01*
X86338044Y-130531925D01*
X85452608Y-130343720D01*
X84547392Y-130343720D01*
X83661956Y-130531925D01*
X82835000Y-130900110D01*
X82102664Y-131432183D01*
X81522600Y-132076409D01*
X81522600Y-125035746D01*
X81537488Y-124960899D01*
X81522600Y-124886052D01*
X81522600Y-124886048D01*
X81478504Y-124664363D01*
X81410783Y-124563011D01*
X81352929Y-124476426D01*
X81352927Y-124476424D01*
X81310529Y-124412971D01*
X81247076Y-124370573D01*
X80300900Y-123424398D01*
X80300900Y-123258326D01*
X80172566Y-122948500D01*
X86410299Y-122948500D01*
X87444270Y-123982472D01*
X87444270Y-123982472D01*
G37*
X87444270Y-123982472D02*
X87486671Y-124045929D01*
X87550127Y-124088329D01*
X87738062Y-124213904D01*
X87786205Y-124223480D01*
X87959748Y-124258000D01*
X87959752Y-124258000D01*
X88034600Y-124272888D01*
X88109448Y-124258000D01*
X88291297Y-124258000D01*
X88158200Y-124579326D01*
X88158200Y-124991074D01*
X88315769Y-125371480D01*
X88433201Y-125488912D01*
X88433200Y-132027321D01*
X87897336Y-131432183D01*
X87165000Y-130900110D01*
X86338044Y-130531925D01*
X85452608Y-130343720D01*
X84547392Y-130343720D01*
X83661956Y-130531925D01*
X82835000Y-130900110D01*
X82102664Y-131432183D01*
X81522600Y-132076409D01*
X81522600Y-125035746D01*
X81537488Y-124960899D01*
X81522600Y-124886052D01*
X81522600Y-124886048D01*
X81478504Y-124664363D01*
X81410783Y-124563011D01*
X81352929Y-124476426D01*
X81352927Y-124476424D01*
X81310529Y-124412971D01*
X81247076Y-124370573D01*
X80300900Y-123424398D01*
X80300900Y-123258326D01*
X80172566Y-122948500D01*
X86410299Y-122948500D01*
X87444270Y-123982472D01*
D14*
G36*
X109290001Y-105703453D02*
X109238119Y-105738119D01*
X109081195Y-105972972D01*
X109026091Y-106250000D01*
X109040001Y-106319931D01*
X109040000Y-114290000D01*
X60960000Y-114290000D01*
X60960000Y-106319925D01*
X60973909Y-106250000D01*
X60959568Y-106177900D01*
X60918805Y-105972972D01*
X60761881Y-105738119D01*
X60710000Y-105703453D01*
X60710000Y-101623623D01*
X60744569Y-101707080D01*
X61035720Y-101998231D01*
X61416126Y-102155800D01*
X61827874Y-102155800D01*
X62208280Y-101998231D01*
X62325711Y-101880800D01*
X64122099Y-101880800D01*
X70468797Y-108227500D01*
X69886402Y-108227500D01*
X68868400Y-107209499D01*
X68868400Y-107043426D01*
X68710831Y-106663020D01*
X68419680Y-106371869D01*
X68039274Y-106214300D01*
X67627526Y-106214300D01*
X67247120Y-106371869D01*
X66955969Y-106663020D01*
X66798400Y-107043426D01*
X66798400Y-107455174D01*
X66955969Y-107835580D01*
X67247120Y-108126731D01*
X67627526Y-108284300D01*
X67793599Y-108284300D01*
X68981271Y-109471973D01*
X69023671Y-109535429D01*
X69275063Y-109703404D01*
X69496748Y-109747500D01*
X69496752Y-109747500D01*
X69571599Y-109762388D01*
X69646446Y-109747500D01*
X105337253Y-109747500D01*
X105412100Y-109762388D01*
X105486947Y-109747500D01*
X105486952Y-109747500D01*
X105708637Y-109703404D01*
X105960029Y-109535429D01*
X106002431Y-109471970D01*
X107378973Y-108095429D01*
X107442429Y-108053029D01*
X107610404Y-107801637D01*
X107654500Y-107579952D01*
X107654500Y-107579948D01*
X107669388Y-107505101D01*
X107654500Y-107430254D01*
X107654500Y-91170248D01*
X107669388Y-91095400D01*
X107654500Y-91020552D01*
X107654500Y-91020548D01*
X107610404Y-90798863D01*
X107610404Y-90798862D01*
X107484829Y-90610927D01*
X107442429Y-90547471D01*
X107378973Y-90505071D01*
X107119100Y-90245198D01*
X107119100Y-90079126D01*
X106961531Y-89698720D01*
X106670380Y-89407569D01*
X106289974Y-89250000D01*
X105878226Y-89250000D01*
X105497820Y-89407569D01*
X105206669Y-89698720D01*
X105049100Y-90079126D01*
X105049100Y-90490874D01*
X105206669Y-90871280D01*
X105497820Y-91162431D01*
X105878226Y-91320000D01*
X106044298Y-91320000D01*
X106134501Y-91410203D01*
X106134501Y-92628099D01*
X101971900Y-88465499D01*
X101971900Y-88299426D01*
X101814331Y-87919020D01*
X101523180Y-87627869D01*
X101142774Y-87470300D01*
X100731026Y-87470300D01*
X100350620Y-87627869D01*
X100197445Y-87781044D01*
X98151401Y-85735000D01*
X109290000Y-85735000D01*
X109290001Y-105703453D01*
X109290001Y-105703453D01*
G37*
X109290001Y-105703453D02*
X109238119Y-105738119D01*
X109081195Y-105972972D01*
X109026091Y-106250000D01*
X109040001Y-106319931D01*
X109040000Y-114290000D01*
X60960000Y-114290000D01*
X60960000Y-106319925D01*
X60973909Y-106250000D01*
X60959568Y-106177900D01*
X60918805Y-105972972D01*
X60761881Y-105738119D01*
X60710000Y-105703453D01*
X60710000Y-101623623D01*
X60744569Y-101707080D01*
X61035720Y-101998231D01*
X61416126Y-102155800D01*
X61827874Y-102155800D01*
X62208280Y-101998231D01*
X62325711Y-101880800D01*
X64122099Y-101880800D01*
X70468797Y-108227500D01*
X69886402Y-108227500D01*
X68868400Y-107209499D01*
X68868400Y-107043426D01*
X68710831Y-106663020D01*
X68419680Y-106371869D01*
X68039274Y-106214300D01*
X67627526Y-106214300D01*
X67247120Y-106371869D01*
X66955969Y-106663020D01*
X66798400Y-107043426D01*
X66798400Y-107455174D01*
X66955969Y-107835580D01*
X67247120Y-108126731D01*
X67627526Y-108284300D01*
X67793599Y-108284300D01*
X68981271Y-109471973D01*
X69023671Y-109535429D01*
X69275063Y-109703404D01*
X69496748Y-109747500D01*
X69496752Y-109747500D01*
X69571599Y-109762388D01*
X69646446Y-109747500D01*
X105337253Y-109747500D01*
X105412100Y-109762388D01*
X105486947Y-109747500D01*
X105486952Y-109747500D01*
X105708637Y-109703404D01*
X105960029Y-109535429D01*
X106002431Y-109471970D01*
X107378973Y-108095429D01*
X107442429Y-108053029D01*
X107610404Y-107801637D01*
X107654500Y-107579952D01*
X107654500Y-107579948D01*
X107669388Y-107505101D01*
X107654500Y-107430254D01*
X107654500Y-91170248D01*
X107669388Y-91095400D01*
X107654500Y-91020552D01*
X107654500Y-91020548D01*
X107610404Y-90798863D01*
X107610404Y-90798862D01*
X107484829Y-90610927D01*
X107442429Y-90547471D01*
X107378973Y-90505071D01*
X107119100Y-90245198D01*
X107119100Y-90079126D01*
X106961531Y-89698720D01*
X106670380Y-89407569D01*
X106289974Y-89250000D01*
X105878226Y-89250000D01*
X105497820Y-89407569D01*
X105206669Y-89698720D01*
X105049100Y-90079126D01*
X105049100Y-90490874D01*
X105206669Y-90871280D01*
X105497820Y-91162431D01*
X105878226Y-91320000D01*
X106044298Y-91320000D01*
X106134501Y-91410203D01*
X106134501Y-92628099D01*
X101971900Y-88465499D01*
X101971900Y-88299426D01*
X101814331Y-87919020D01*
X101523180Y-87627869D01*
X101142774Y-87470300D01*
X100731026Y-87470300D01*
X100350620Y-87627869D01*
X100197445Y-87781044D01*
X98151401Y-85735000D01*
X109290000Y-85735000D01*
X109290001Y-105703453D01*
G36*
X91186101Y-89835203D02*
X91186100Y-90734098D01*
X90336728Y-91583471D01*
X90273272Y-91625871D01*
X90230872Y-91689327D01*
X90230871Y-91689328D01*
X90105297Y-91877263D01*
X90046312Y-92173800D01*
X90061201Y-92248652D01*
X90061200Y-103386898D01*
X88960199Y-104487900D01*
X88794126Y-104487900D01*
X88413720Y-104645469D01*
X88122569Y-104936620D01*
X87965000Y-105317026D01*
X87965000Y-105525700D01*
X85800701Y-105525700D01*
X89677676Y-101648727D01*
X89741129Y-101606329D01*
X89783527Y-101542876D01*
X89783529Y-101542874D01*
X89876942Y-101403071D01*
X89909104Y-101354937D01*
X89953200Y-101133252D01*
X89953200Y-101133248D01*
X89968088Y-101058401D01*
X89953200Y-100983554D01*
X89953200Y-90488911D01*
X90070631Y-90371480D01*
X90228200Y-89991074D01*
X90228200Y-89579326D01*
X90095103Y-89258000D01*
X90608899Y-89258000D01*
X91186101Y-89835203D01*
X91186101Y-89835203D01*
G37*
X91186101Y-89835203D02*
X91186100Y-90734098D01*
X90336728Y-91583471D01*
X90273272Y-91625871D01*
X90230872Y-91689327D01*
X90230871Y-91689328D01*
X90105297Y-91877263D01*
X90046312Y-92173800D01*
X90061201Y-92248652D01*
X90061200Y-103386898D01*
X88960199Y-104487900D01*
X88794126Y-104487900D01*
X88413720Y-104645469D01*
X88122569Y-104936620D01*
X87965000Y-105317026D01*
X87965000Y-105525700D01*
X85800701Y-105525700D01*
X89677676Y-101648727D01*
X89741129Y-101606329D01*
X89783527Y-101542876D01*
X89783529Y-101542874D01*
X89876942Y-101403071D01*
X89909104Y-101354937D01*
X89953200Y-101133252D01*
X89953200Y-101133248D01*
X89968088Y-101058401D01*
X89953200Y-100983554D01*
X89953200Y-90488911D01*
X90070631Y-90371480D01*
X90228200Y-89991074D01*
X90228200Y-89579326D01*
X90095103Y-89258000D01*
X90608899Y-89258000D01*
X91186101Y-89835203D01*
G36*
X70430999Y-86733700D02*
X70264926Y-86733700D01*
X69884520Y-86891269D01*
X69593369Y-87182420D01*
X69435800Y-87562826D01*
X69435800Y-87734100D01*
X67261100Y-87734100D01*
X67261100Y-87661726D01*
X67103531Y-87281320D01*
X66812380Y-86990169D01*
X66431974Y-86832600D01*
X66020226Y-86832600D01*
X65639820Y-86990169D01*
X65348669Y-87281320D01*
X65191100Y-87661726D01*
X65191100Y-88073474D01*
X65348669Y-88453880D01*
X65639820Y-88745031D01*
X66020226Y-88902600D01*
X66186298Y-88902600D01*
X66262271Y-88978573D01*
X66304671Y-89042029D01*
X66368127Y-89084429D01*
X66556062Y-89210004D01*
X66604205Y-89219580D01*
X66777748Y-89254100D01*
X66777752Y-89254100D01*
X66852600Y-89268988D01*
X66927448Y-89254100D01*
X73019953Y-89254100D01*
X73094800Y-89268988D01*
X73169647Y-89254100D01*
X73169652Y-89254100D01*
X73391337Y-89210004D01*
X73642729Y-89042029D01*
X73685131Y-88978570D01*
X74715202Y-87948500D01*
X76233334Y-87948500D01*
X76105000Y-88258326D01*
X76105000Y-88670074D01*
X76262569Y-89050480D01*
X76542289Y-89330200D01*
X76397726Y-89330200D01*
X76017320Y-89487769D01*
X75899889Y-89605200D01*
X73967746Y-89605200D01*
X73892899Y-89590312D01*
X73818052Y-89605200D01*
X73818048Y-89605200D01*
X73596363Y-89649296D01*
X73596361Y-89649297D01*
X73596362Y-89649297D01*
X73408426Y-89774871D01*
X73408424Y-89774873D01*
X73344971Y-89817271D01*
X73302573Y-89880724D01*
X63952428Y-99230871D01*
X63888972Y-99273271D01*
X63846572Y-99336727D01*
X63846571Y-99336728D01*
X63827889Y-99364688D01*
X63720997Y-99524663D01*
X63684351Y-99708897D01*
X63662012Y-99821200D01*
X63676901Y-99896051D01*
X63676901Y-100360800D01*
X62325711Y-100360800D01*
X62208280Y-100243369D01*
X61827874Y-100085800D01*
X61416126Y-100085800D01*
X61035720Y-100243369D01*
X60744569Y-100534520D01*
X60710000Y-100617977D01*
X60710000Y-85735000D01*
X71429698Y-85735000D01*
X70430999Y-86733700D01*
X70430999Y-86733700D01*
G37*
X70430999Y-86733700D02*
X70264926Y-86733700D01*
X69884520Y-86891269D01*
X69593369Y-87182420D01*
X69435800Y-87562826D01*
X69435800Y-87734100D01*
X67261100Y-87734100D01*
X67261100Y-87661726D01*
X67103531Y-87281320D01*
X66812380Y-86990169D01*
X66431974Y-86832600D01*
X66020226Y-86832600D01*
X65639820Y-86990169D01*
X65348669Y-87281320D01*
X65191100Y-87661726D01*
X65191100Y-88073474D01*
X65348669Y-88453880D01*
X65639820Y-88745031D01*
X66020226Y-88902600D01*
X66186298Y-88902600D01*
X66262271Y-88978573D01*
X66304671Y-89042029D01*
X66368127Y-89084429D01*
X66556062Y-89210004D01*
X66604205Y-89219580D01*
X66777748Y-89254100D01*
X66777752Y-89254100D01*
X66852600Y-89268988D01*
X66927448Y-89254100D01*
X73019953Y-89254100D01*
X73094800Y-89268988D01*
X73169647Y-89254100D01*
X73169652Y-89254100D01*
X73391337Y-89210004D01*
X73642729Y-89042029D01*
X73685131Y-88978570D01*
X74715202Y-87948500D01*
X76233334Y-87948500D01*
X76105000Y-88258326D01*
X76105000Y-88670074D01*
X76262569Y-89050480D01*
X76542289Y-89330200D01*
X76397726Y-89330200D01*
X76017320Y-89487769D01*
X75899889Y-89605200D01*
X73967746Y-89605200D01*
X73892899Y-89590312D01*
X73818052Y-89605200D01*
X73818048Y-89605200D01*
X73596363Y-89649296D01*
X73596361Y-89649297D01*
X73596362Y-89649297D01*
X73408426Y-89774871D01*
X73408424Y-89774873D01*
X73344971Y-89817271D01*
X73302573Y-89880724D01*
X63952428Y-99230871D01*
X63888972Y-99273271D01*
X63846572Y-99336727D01*
X63846571Y-99336728D01*
X63827889Y-99364688D01*
X63720997Y-99524663D01*
X63684351Y-99708897D01*
X63662012Y-99821200D01*
X63676901Y-99896051D01*
X63676901Y-100360800D01*
X62325711Y-100360800D01*
X62208280Y-100243369D01*
X61827874Y-100085800D01*
X61416126Y-100085800D01*
X61035720Y-100243369D01*
X60744569Y-100534520D01*
X60710000Y-100617977D01*
X60710000Y-85735000D01*
X71429698Y-85735000D01*
X70430999Y-86733700D01*
G36*
X87444270Y-88982472D02*
X87486671Y-89045929D01*
X87550127Y-89088329D01*
X87738062Y-89213904D01*
X87786205Y-89223480D01*
X87959748Y-89258000D01*
X87959752Y-89258000D01*
X88034600Y-89272888D01*
X88109448Y-89258000D01*
X88291297Y-89258000D01*
X88158200Y-89579326D01*
X88158200Y-89991074D01*
X88315769Y-90371480D01*
X88433201Y-90488912D01*
X88433200Y-97027321D01*
X87897336Y-96432183D01*
X87165000Y-95900110D01*
X86338044Y-95531925D01*
X85452608Y-95343720D01*
X84547392Y-95343720D01*
X83661956Y-95531925D01*
X82835000Y-95900110D01*
X82102664Y-96432183D01*
X81522600Y-97076409D01*
X81522600Y-90035746D01*
X81537488Y-89960899D01*
X81522600Y-89886052D01*
X81522600Y-89886048D01*
X81478504Y-89664363D01*
X81410783Y-89563011D01*
X81352929Y-89476426D01*
X81352927Y-89476424D01*
X81310529Y-89412971D01*
X81247076Y-89370573D01*
X80300900Y-88424398D01*
X80300900Y-88258326D01*
X80172566Y-87948500D01*
X86410299Y-87948500D01*
X87444270Y-88982472D01*
X87444270Y-88982472D01*
G37*
X87444270Y-88982472D02*
X87486671Y-89045929D01*
X87550127Y-89088329D01*
X87738062Y-89213904D01*
X87786205Y-89223480D01*
X87959748Y-89258000D01*
X87959752Y-89258000D01*
X88034600Y-89272888D01*
X88109448Y-89258000D01*
X88291297Y-89258000D01*
X88158200Y-89579326D01*
X88158200Y-89991074D01*
X88315769Y-90371480D01*
X88433201Y-90488912D01*
X88433200Y-97027321D01*
X87897336Y-96432183D01*
X87165000Y-95900110D01*
X86338044Y-95531925D01*
X85452608Y-95343720D01*
X84547392Y-95343720D01*
X83661956Y-95531925D01*
X82835000Y-95900110D01*
X82102664Y-96432183D01*
X81522600Y-97076409D01*
X81522600Y-90035746D01*
X81537488Y-89960899D01*
X81522600Y-89886052D01*
X81522600Y-89886048D01*
X81478504Y-89664363D01*
X81410783Y-89563011D01*
X81352929Y-89476426D01*
X81352927Y-89476424D01*
X81310529Y-89412971D01*
X81247076Y-89370573D01*
X80300900Y-88424398D01*
X80300900Y-88258326D01*
X80172566Y-87948500D01*
X86410299Y-87948500D01*
X87444270Y-88982472D01*
G36*
X109290001Y-70703453D02*
X109238119Y-70738119D01*
X109081195Y-70972972D01*
X109026091Y-71250000D01*
X109040001Y-71319931D01*
X109040000Y-79290000D01*
X60960000Y-79290000D01*
X60960000Y-71319925D01*
X60973909Y-71250000D01*
X60959568Y-71177900D01*
X60918805Y-70972972D01*
X60761881Y-70738119D01*
X60710000Y-70703453D01*
X60710000Y-66623623D01*
X60744569Y-66707080D01*
X61035720Y-66998231D01*
X61416126Y-67155800D01*
X61827874Y-67155800D01*
X62208280Y-66998231D01*
X62325711Y-66880800D01*
X64122099Y-66880800D01*
X70468797Y-73227500D01*
X69886402Y-73227500D01*
X68868400Y-72209499D01*
X68868400Y-72043426D01*
X68710831Y-71663020D01*
X68419680Y-71371869D01*
X68039274Y-71214300D01*
X67627526Y-71214300D01*
X67247120Y-71371869D01*
X66955969Y-71663020D01*
X66798400Y-72043426D01*
X66798400Y-72455174D01*
X66955969Y-72835580D01*
X67247120Y-73126731D01*
X67627526Y-73284300D01*
X67793599Y-73284300D01*
X68981271Y-74471973D01*
X69023671Y-74535429D01*
X69275063Y-74703404D01*
X69496748Y-74747500D01*
X69496752Y-74747500D01*
X69571599Y-74762388D01*
X69646446Y-74747500D01*
X105337253Y-74747500D01*
X105412100Y-74762388D01*
X105486947Y-74747500D01*
X105486952Y-74747500D01*
X105708637Y-74703404D01*
X105960029Y-74535429D01*
X106002431Y-74471970D01*
X107378973Y-73095429D01*
X107442429Y-73053029D01*
X107610404Y-72801637D01*
X107654500Y-72579952D01*
X107654500Y-72579948D01*
X107669388Y-72505101D01*
X107654500Y-72430254D01*
X107654500Y-56170248D01*
X107669388Y-56095400D01*
X107654500Y-56020552D01*
X107654500Y-56020548D01*
X107610404Y-55798863D01*
X107610404Y-55798862D01*
X107484829Y-55610927D01*
X107442429Y-55547471D01*
X107378973Y-55505071D01*
X107119100Y-55245198D01*
X107119100Y-55079126D01*
X106961531Y-54698720D01*
X106670380Y-54407569D01*
X106289974Y-54250000D01*
X105878226Y-54250000D01*
X105497820Y-54407569D01*
X105206669Y-54698720D01*
X105049100Y-55079126D01*
X105049100Y-55490874D01*
X105206669Y-55871280D01*
X105497820Y-56162431D01*
X105878226Y-56320000D01*
X106044298Y-56320000D01*
X106134501Y-56410203D01*
X106134501Y-57628099D01*
X101971900Y-53465499D01*
X101971900Y-53299426D01*
X101814331Y-52919020D01*
X101523180Y-52627869D01*
X101142774Y-52470300D01*
X100731026Y-52470300D01*
X100350620Y-52627869D01*
X100197445Y-52781044D01*
X98151401Y-50735000D01*
X109290000Y-50735000D01*
X109290001Y-70703453D01*
X109290001Y-70703453D01*
G37*
X109290001Y-70703453D02*
X109238119Y-70738119D01*
X109081195Y-70972972D01*
X109026091Y-71250000D01*
X109040001Y-71319931D01*
X109040000Y-79290000D01*
X60960000Y-79290000D01*
X60960000Y-71319925D01*
X60973909Y-71250000D01*
X60959568Y-71177900D01*
X60918805Y-70972972D01*
X60761881Y-70738119D01*
X60710000Y-70703453D01*
X60710000Y-66623623D01*
X60744569Y-66707080D01*
X61035720Y-66998231D01*
X61416126Y-67155800D01*
X61827874Y-67155800D01*
X62208280Y-66998231D01*
X62325711Y-66880800D01*
X64122099Y-66880800D01*
X70468797Y-73227500D01*
X69886402Y-73227500D01*
X68868400Y-72209499D01*
X68868400Y-72043426D01*
X68710831Y-71663020D01*
X68419680Y-71371869D01*
X68039274Y-71214300D01*
X67627526Y-71214300D01*
X67247120Y-71371869D01*
X66955969Y-71663020D01*
X66798400Y-72043426D01*
X66798400Y-72455174D01*
X66955969Y-72835580D01*
X67247120Y-73126731D01*
X67627526Y-73284300D01*
X67793599Y-73284300D01*
X68981271Y-74471973D01*
X69023671Y-74535429D01*
X69275063Y-74703404D01*
X69496748Y-74747500D01*
X69496752Y-74747500D01*
X69571599Y-74762388D01*
X69646446Y-74747500D01*
X105337253Y-74747500D01*
X105412100Y-74762388D01*
X105486947Y-74747500D01*
X105486952Y-74747500D01*
X105708637Y-74703404D01*
X105960029Y-74535429D01*
X106002431Y-74471970D01*
X107378973Y-73095429D01*
X107442429Y-73053029D01*
X107610404Y-72801637D01*
X107654500Y-72579952D01*
X107654500Y-72579948D01*
X107669388Y-72505101D01*
X107654500Y-72430254D01*
X107654500Y-56170248D01*
X107669388Y-56095400D01*
X107654500Y-56020552D01*
X107654500Y-56020548D01*
X107610404Y-55798863D01*
X107610404Y-55798862D01*
X107484829Y-55610927D01*
X107442429Y-55547471D01*
X107378973Y-55505071D01*
X107119100Y-55245198D01*
X107119100Y-55079126D01*
X106961531Y-54698720D01*
X106670380Y-54407569D01*
X106289974Y-54250000D01*
X105878226Y-54250000D01*
X105497820Y-54407569D01*
X105206669Y-54698720D01*
X105049100Y-55079126D01*
X105049100Y-55490874D01*
X105206669Y-55871280D01*
X105497820Y-56162431D01*
X105878226Y-56320000D01*
X106044298Y-56320000D01*
X106134501Y-56410203D01*
X106134501Y-57628099D01*
X101971900Y-53465499D01*
X101971900Y-53299426D01*
X101814331Y-52919020D01*
X101523180Y-52627869D01*
X101142774Y-52470300D01*
X100731026Y-52470300D01*
X100350620Y-52627869D01*
X100197445Y-52781044D01*
X98151401Y-50735000D01*
X109290000Y-50735000D01*
X109290001Y-70703453D01*
G36*
X91186101Y-54835203D02*
X91186100Y-55734098D01*
X90336728Y-56583471D01*
X90273272Y-56625871D01*
X90230872Y-56689327D01*
X90230871Y-56689328D01*
X90105297Y-56877263D01*
X90046312Y-57173800D01*
X90061201Y-57248652D01*
X90061200Y-68386898D01*
X88960199Y-69487900D01*
X88794126Y-69487900D01*
X88413720Y-69645469D01*
X88122569Y-69936620D01*
X87965000Y-70317026D01*
X87965000Y-70525700D01*
X85800701Y-70525700D01*
X89677676Y-66648727D01*
X89741129Y-66606329D01*
X89783527Y-66542876D01*
X89783529Y-66542874D01*
X89876942Y-66403071D01*
X89909104Y-66354937D01*
X89953200Y-66133252D01*
X89953200Y-66133248D01*
X89968088Y-66058401D01*
X89953200Y-65983554D01*
X89953200Y-55488911D01*
X90070631Y-55371480D01*
X90228200Y-54991074D01*
X90228200Y-54579326D01*
X90095103Y-54258000D01*
X90608899Y-54258000D01*
X91186101Y-54835203D01*
X91186101Y-54835203D01*
G37*
X91186101Y-54835203D02*
X91186100Y-55734098D01*
X90336728Y-56583471D01*
X90273272Y-56625871D01*
X90230872Y-56689327D01*
X90230871Y-56689328D01*
X90105297Y-56877263D01*
X90046312Y-57173800D01*
X90061201Y-57248652D01*
X90061200Y-68386898D01*
X88960199Y-69487900D01*
X88794126Y-69487900D01*
X88413720Y-69645469D01*
X88122569Y-69936620D01*
X87965000Y-70317026D01*
X87965000Y-70525700D01*
X85800701Y-70525700D01*
X89677676Y-66648727D01*
X89741129Y-66606329D01*
X89783527Y-66542876D01*
X89783529Y-66542874D01*
X89876942Y-66403071D01*
X89909104Y-66354937D01*
X89953200Y-66133252D01*
X89953200Y-66133248D01*
X89968088Y-66058401D01*
X89953200Y-65983554D01*
X89953200Y-55488911D01*
X90070631Y-55371480D01*
X90228200Y-54991074D01*
X90228200Y-54579326D01*
X90095103Y-54258000D01*
X90608899Y-54258000D01*
X91186101Y-54835203D01*
G36*
X70430999Y-51733700D02*
X70264926Y-51733700D01*
X69884520Y-51891269D01*
X69593369Y-52182420D01*
X69435800Y-52562826D01*
X69435800Y-52734100D01*
X67261100Y-52734100D01*
X67261100Y-52661726D01*
X67103531Y-52281320D01*
X66812380Y-51990169D01*
X66431974Y-51832600D01*
X66020226Y-51832600D01*
X65639820Y-51990169D01*
X65348669Y-52281320D01*
X65191100Y-52661726D01*
X65191100Y-53073474D01*
X65348669Y-53453880D01*
X65639820Y-53745031D01*
X66020226Y-53902600D01*
X66186298Y-53902600D01*
X66262271Y-53978573D01*
X66304671Y-54042029D01*
X66368127Y-54084429D01*
X66556062Y-54210004D01*
X66604205Y-54219580D01*
X66777748Y-54254100D01*
X66777752Y-54254100D01*
X66852600Y-54268988D01*
X66927448Y-54254100D01*
X73019953Y-54254100D01*
X73094800Y-54268988D01*
X73169647Y-54254100D01*
X73169652Y-54254100D01*
X73391337Y-54210004D01*
X73642729Y-54042029D01*
X73685131Y-53978570D01*
X74715202Y-52948500D01*
X76233334Y-52948500D01*
X76105000Y-53258326D01*
X76105000Y-53670074D01*
X76262569Y-54050480D01*
X76542289Y-54330200D01*
X76397726Y-54330200D01*
X76017320Y-54487769D01*
X75899889Y-54605200D01*
X73967746Y-54605200D01*
X73892899Y-54590312D01*
X73818052Y-54605200D01*
X73818048Y-54605200D01*
X73596363Y-54649296D01*
X73596361Y-54649297D01*
X73596362Y-54649297D01*
X73408426Y-54774871D01*
X73408424Y-54774873D01*
X73344971Y-54817271D01*
X73302573Y-54880724D01*
X63952428Y-64230871D01*
X63888972Y-64273271D01*
X63846572Y-64336727D01*
X63846571Y-64336728D01*
X63827889Y-64364688D01*
X63720997Y-64524663D01*
X63684351Y-64708897D01*
X63662012Y-64821200D01*
X63676901Y-64896051D01*
X63676901Y-65360800D01*
X62325711Y-65360800D01*
X62208280Y-65243369D01*
X61827874Y-65085800D01*
X61416126Y-65085800D01*
X61035720Y-65243369D01*
X60744569Y-65534520D01*
X60710000Y-65617977D01*
X60710000Y-50735000D01*
X71429698Y-50735000D01*
X70430999Y-51733700D01*
X70430999Y-51733700D01*
G37*
X70430999Y-51733700D02*
X70264926Y-51733700D01*
X69884520Y-51891269D01*
X69593369Y-52182420D01*
X69435800Y-52562826D01*
X69435800Y-52734100D01*
X67261100Y-52734100D01*
X67261100Y-52661726D01*
X67103531Y-52281320D01*
X66812380Y-51990169D01*
X66431974Y-51832600D01*
X66020226Y-51832600D01*
X65639820Y-51990169D01*
X65348669Y-52281320D01*
X65191100Y-52661726D01*
X65191100Y-53073474D01*
X65348669Y-53453880D01*
X65639820Y-53745031D01*
X66020226Y-53902600D01*
X66186298Y-53902600D01*
X66262271Y-53978573D01*
X66304671Y-54042029D01*
X66368127Y-54084429D01*
X66556062Y-54210004D01*
X66604205Y-54219580D01*
X66777748Y-54254100D01*
X66777752Y-54254100D01*
X66852600Y-54268988D01*
X66927448Y-54254100D01*
X73019953Y-54254100D01*
X73094800Y-54268988D01*
X73169647Y-54254100D01*
X73169652Y-54254100D01*
X73391337Y-54210004D01*
X73642729Y-54042029D01*
X73685131Y-53978570D01*
X74715202Y-52948500D01*
X76233334Y-52948500D01*
X76105000Y-53258326D01*
X76105000Y-53670074D01*
X76262569Y-54050480D01*
X76542289Y-54330200D01*
X76397726Y-54330200D01*
X76017320Y-54487769D01*
X75899889Y-54605200D01*
X73967746Y-54605200D01*
X73892899Y-54590312D01*
X73818052Y-54605200D01*
X73818048Y-54605200D01*
X73596363Y-54649296D01*
X73596361Y-54649297D01*
X73596362Y-54649297D01*
X73408426Y-54774871D01*
X73408424Y-54774873D01*
X73344971Y-54817271D01*
X73302573Y-54880724D01*
X63952428Y-64230871D01*
X63888972Y-64273271D01*
X63846572Y-64336727D01*
X63846571Y-64336728D01*
X63827889Y-64364688D01*
X63720997Y-64524663D01*
X63684351Y-64708897D01*
X63662012Y-64821200D01*
X63676901Y-64896051D01*
X63676901Y-65360800D01*
X62325711Y-65360800D01*
X62208280Y-65243369D01*
X61827874Y-65085800D01*
X61416126Y-65085800D01*
X61035720Y-65243369D01*
X60744569Y-65534520D01*
X60710000Y-65617977D01*
X60710000Y-50735000D01*
X71429698Y-50735000D01*
X70430999Y-51733700D01*
G36*
X87444270Y-53982472D02*
X87486671Y-54045929D01*
X87550127Y-54088329D01*
X87738062Y-54213904D01*
X87786205Y-54223480D01*
X87959748Y-54258000D01*
X87959752Y-54258000D01*
X88034600Y-54272888D01*
X88109448Y-54258000D01*
X88291297Y-54258000D01*
X88158200Y-54579326D01*
X88158200Y-54991074D01*
X88315769Y-55371480D01*
X88433201Y-55488912D01*
X88433200Y-62027321D01*
X87897336Y-61432183D01*
X87165000Y-60900110D01*
X86338044Y-60531925D01*
X85452608Y-60343720D01*
X84547392Y-60343720D01*
X83661956Y-60531925D01*
X82835000Y-60900110D01*
X82102664Y-61432183D01*
X81522600Y-62076409D01*
X81522600Y-55035746D01*
X81537488Y-54960899D01*
X81522600Y-54886052D01*
X81522600Y-54886048D01*
X81478504Y-54664363D01*
X81410783Y-54563011D01*
X81352929Y-54476426D01*
X81352927Y-54476424D01*
X81310529Y-54412971D01*
X81247076Y-54370573D01*
X80300900Y-53424398D01*
X80300900Y-53258326D01*
X80172566Y-52948500D01*
X86410299Y-52948500D01*
X87444270Y-53982472D01*
X87444270Y-53982472D01*
G37*
X87444270Y-53982472D02*
X87486671Y-54045929D01*
X87550127Y-54088329D01*
X87738062Y-54213904D01*
X87786205Y-54223480D01*
X87959748Y-54258000D01*
X87959752Y-54258000D01*
X88034600Y-54272888D01*
X88109448Y-54258000D01*
X88291297Y-54258000D01*
X88158200Y-54579326D01*
X88158200Y-54991074D01*
X88315769Y-55371480D01*
X88433201Y-55488912D01*
X88433200Y-62027321D01*
X87897336Y-61432183D01*
X87165000Y-60900110D01*
X86338044Y-60531925D01*
X85452608Y-60343720D01*
X84547392Y-60343720D01*
X83661956Y-60531925D01*
X82835000Y-60900110D01*
X82102664Y-61432183D01*
X81522600Y-62076409D01*
X81522600Y-55035746D01*
X81537488Y-54960899D01*
X81522600Y-54886052D01*
X81522600Y-54886048D01*
X81478504Y-54664363D01*
X81410783Y-54563011D01*
X81352929Y-54476426D01*
X81352927Y-54476424D01*
X81310529Y-54412971D01*
X81247076Y-54370573D01*
X80300900Y-53424398D01*
X80300900Y-53258326D01*
X80172566Y-52948500D01*
X86410299Y-52948500D01*
X87444270Y-53982472D01*
G36*
X159290001Y-140703453D02*
X159238119Y-140738119D01*
X159081195Y-140972972D01*
X159026091Y-141250000D01*
X159040001Y-141319931D01*
X159040000Y-149290000D01*
X110960000Y-149290000D01*
X110960000Y-141319925D01*
X110973909Y-141250000D01*
X110959568Y-141177900D01*
X110918805Y-140972972D01*
X110761881Y-140738119D01*
X110710000Y-140703453D01*
X110710000Y-136623623D01*
X110744569Y-136707080D01*
X111035720Y-136998231D01*
X111416126Y-137155800D01*
X111827874Y-137155800D01*
X112208280Y-136998231D01*
X112325711Y-136880800D01*
X114122099Y-136880800D01*
X120468797Y-143227500D01*
X119886402Y-143227500D01*
X118868400Y-142209499D01*
X118868400Y-142043426D01*
X118710831Y-141663020D01*
X118419680Y-141371869D01*
X118039274Y-141214300D01*
X117627526Y-141214300D01*
X117247120Y-141371869D01*
X116955969Y-141663020D01*
X116798400Y-142043426D01*
X116798400Y-142455174D01*
X116955969Y-142835580D01*
X117247120Y-143126731D01*
X117627526Y-143284300D01*
X117793599Y-143284300D01*
X118981271Y-144471973D01*
X119023671Y-144535429D01*
X119275063Y-144703404D01*
X119496748Y-144747500D01*
X119496752Y-144747500D01*
X119571599Y-144762388D01*
X119646446Y-144747500D01*
X155337253Y-144747500D01*
X155412100Y-144762388D01*
X155486947Y-144747500D01*
X155486952Y-144747500D01*
X155708637Y-144703404D01*
X155960029Y-144535429D01*
X156002431Y-144471970D01*
X157378973Y-143095429D01*
X157442429Y-143053029D01*
X157610404Y-142801637D01*
X157654500Y-142579952D01*
X157654500Y-142579948D01*
X157669388Y-142505101D01*
X157654500Y-142430254D01*
X157654500Y-126170248D01*
X157669388Y-126095400D01*
X157654500Y-126020552D01*
X157654500Y-126020548D01*
X157610404Y-125798863D01*
X157610404Y-125798862D01*
X157484829Y-125610927D01*
X157442429Y-125547471D01*
X157378973Y-125505071D01*
X157119100Y-125245198D01*
X157119100Y-125079126D01*
X156961531Y-124698720D01*
X156670380Y-124407569D01*
X156289974Y-124250000D01*
X155878226Y-124250000D01*
X155497820Y-124407569D01*
X155206669Y-124698720D01*
X155049100Y-125079126D01*
X155049100Y-125490874D01*
X155206669Y-125871280D01*
X155497820Y-126162431D01*
X155878226Y-126320000D01*
X156044298Y-126320000D01*
X156134501Y-126410203D01*
X156134501Y-127628099D01*
X151971900Y-123465499D01*
X151971900Y-123299426D01*
X151814331Y-122919020D01*
X151523180Y-122627869D01*
X151142774Y-122470300D01*
X150731026Y-122470300D01*
X150350620Y-122627869D01*
X150197445Y-122781044D01*
X148151401Y-120735000D01*
X159290000Y-120735000D01*
X159290001Y-140703453D01*
X159290001Y-140703453D01*
G37*
X159290001Y-140703453D02*
X159238119Y-140738119D01*
X159081195Y-140972972D01*
X159026091Y-141250000D01*
X159040001Y-141319931D01*
X159040000Y-149290000D01*
X110960000Y-149290000D01*
X110960000Y-141319925D01*
X110973909Y-141250000D01*
X110959568Y-141177900D01*
X110918805Y-140972972D01*
X110761881Y-140738119D01*
X110710000Y-140703453D01*
X110710000Y-136623623D01*
X110744569Y-136707080D01*
X111035720Y-136998231D01*
X111416126Y-137155800D01*
X111827874Y-137155800D01*
X112208280Y-136998231D01*
X112325711Y-136880800D01*
X114122099Y-136880800D01*
X120468797Y-143227500D01*
X119886402Y-143227500D01*
X118868400Y-142209499D01*
X118868400Y-142043426D01*
X118710831Y-141663020D01*
X118419680Y-141371869D01*
X118039274Y-141214300D01*
X117627526Y-141214300D01*
X117247120Y-141371869D01*
X116955969Y-141663020D01*
X116798400Y-142043426D01*
X116798400Y-142455174D01*
X116955969Y-142835580D01*
X117247120Y-143126731D01*
X117627526Y-143284300D01*
X117793599Y-143284300D01*
X118981271Y-144471973D01*
X119023671Y-144535429D01*
X119275063Y-144703404D01*
X119496748Y-144747500D01*
X119496752Y-144747500D01*
X119571599Y-144762388D01*
X119646446Y-144747500D01*
X155337253Y-144747500D01*
X155412100Y-144762388D01*
X155486947Y-144747500D01*
X155486952Y-144747500D01*
X155708637Y-144703404D01*
X155960029Y-144535429D01*
X156002431Y-144471970D01*
X157378973Y-143095429D01*
X157442429Y-143053029D01*
X157610404Y-142801637D01*
X157654500Y-142579952D01*
X157654500Y-142579948D01*
X157669388Y-142505101D01*
X157654500Y-142430254D01*
X157654500Y-126170248D01*
X157669388Y-126095400D01*
X157654500Y-126020552D01*
X157654500Y-126020548D01*
X157610404Y-125798863D01*
X157610404Y-125798862D01*
X157484829Y-125610927D01*
X157442429Y-125547471D01*
X157378973Y-125505071D01*
X157119100Y-125245198D01*
X157119100Y-125079126D01*
X156961531Y-124698720D01*
X156670380Y-124407569D01*
X156289974Y-124250000D01*
X155878226Y-124250000D01*
X155497820Y-124407569D01*
X155206669Y-124698720D01*
X155049100Y-125079126D01*
X155049100Y-125490874D01*
X155206669Y-125871280D01*
X155497820Y-126162431D01*
X155878226Y-126320000D01*
X156044298Y-126320000D01*
X156134501Y-126410203D01*
X156134501Y-127628099D01*
X151971900Y-123465499D01*
X151971900Y-123299426D01*
X151814331Y-122919020D01*
X151523180Y-122627869D01*
X151142774Y-122470300D01*
X150731026Y-122470300D01*
X150350620Y-122627869D01*
X150197445Y-122781044D01*
X148151401Y-120735000D01*
X159290000Y-120735000D01*
X159290001Y-140703453D01*
G36*
X141186101Y-124835203D02*
X141186100Y-125734098D01*
X140336728Y-126583471D01*
X140273272Y-126625871D01*
X140230872Y-126689327D01*
X140230871Y-126689328D01*
X140105297Y-126877263D01*
X140046312Y-127173800D01*
X140061201Y-127248652D01*
X140061200Y-138386898D01*
X138960199Y-139487900D01*
X138794126Y-139487900D01*
X138413720Y-139645469D01*
X138122569Y-139936620D01*
X137965000Y-140317026D01*
X137965000Y-140525700D01*
X135800701Y-140525700D01*
X139677676Y-136648727D01*
X139741129Y-136606329D01*
X139783527Y-136542876D01*
X139783529Y-136542874D01*
X139876942Y-136403071D01*
X139909104Y-136354937D01*
X139953200Y-136133252D01*
X139953200Y-136133248D01*
X139968088Y-136058401D01*
X139953200Y-135983554D01*
X139953200Y-125488911D01*
X140070631Y-125371480D01*
X140228200Y-124991074D01*
X140228200Y-124579326D01*
X140095103Y-124258000D01*
X140608899Y-124258000D01*
X141186101Y-124835203D01*
X141186101Y-124835203D01*
G37*
X141186101Y-124835203D02*
X141186100Y-125734098D01*
X140336728Y-126583471D01*
X140273272Y-126625871D01*
X140230872Y-126689327D01*
X140230871Y-126689328D01*
X140105297Y-126877263D01*
X140046312Y-127173800D01*
X140061201Y-127248652D01*
X140061200Y-138386898D01*
X138960199Y-139487900D01*
X138794126Y-139487900D01*
X138413720Y-139645469D01*
X138122569Y-139936620D01*
X137965000Y-140317026D01*
X137965000Y-140525700D01*
X135800701Y-140525700D01*
X139677676Y-136648727D01*
X139741129Y-136606329D01*
X139783527Y-136542876D01*
X139783529Y-136542874D01*
X139876942Y-136403071D01*
X139909104Y-136354937D01*
X139953200Y-136133252D01*
X139953200Y-136133248D01*
X139968088Y-136058401D01*
X139953200Y-135983554D01*
X139953200Y-125488911D01*
X140070631Y-125371480D01*
X140228200Y-124991074D01*
X140228200Y-124579326D01*
X140095103Y-124258000D01*
X140608899Y-124258000D01*
X141186101Y-124835203D01*
G36*
X120430999Y-121733700D02*
X120264926Y-121733700D01*
X119884520Y-121891269D01*
X119593369Y-122182420D01*
X119435800Y-122562826D01*
X119435800Y-122734100D01*
X117261100Y-122734100D01*
X117261100Y-122661726D01*
X117103531Y-122281320D01*
X116812380Y-121990169D01*
X116431974Y-121832600D01*
X116020226Y-121832600D01*
X115639820Y-121990169D01*
X115348669Y-122281320D01*
X115191100Y-122661726D01*
X115191100Y-123073474D01*
X115348669Y-123453880D01*
X115639820Y-123745031D01*
X116020226Y-123902600D01*
X116186298Y-123902600D01*
X116262271Y-123978573D01*
X116304671Y-124042029D01*
X116368127Y-124084429D01*
X116556062Y-124210004D01*
X116604205Y-124219580D01*
X116777748Y-124254100D01*
X116777752Y-124254100D01*
X116852600Y-124268988D01*
X116927448Y-124254100D01*
X123019953Y-124254100D01*
X123094800Y-124268988D01*
X123169647Y-124254100D01*
X123169652Y-124254100D01*
X123391337Y-124210004D01*
X123642729Y-124042029D01*
X123685131Y-123978570D01*
X124715202Y-122948500D01*
X126233334Y-122948500D01*
X126105000Y-123258326D01*
X126105000Y-123670074D01*
X126262569Y-124050480D01*
X126542289Y-124330200D01*
X126397726Y-124330200D01*
X126017320Y-124487769D01*
X125899889Y-124605200D01*
X123967746Y-124605200D01*
X123892899Y-124590312D01*
X123818052Y-124605200D01*
X123818048Y-124605200D01*
X123596363Y-124649296D01*
X123596361Y-124649297D01*
X123596362Y-124649297D01*
X123408426Y-124774871D01*
X123408424Y-124774873D01*
X123344971Y-124817271D01*
X123302573Y-124880724D01*
X113952428Y-134230871D01*
X113888972Y-134273271D01*
X113846572Y-134336727D01*
X113846571Y-134336728D01*
X113827889Y-134364688D01*
X113720997Y-134524663D01*
X113684351Y-134708897D01*
X113662012Y-134821200D01*
X113676901Y-134896051D01*
X113676901Y-135360800D01*
X112325711Y-135360800D01*
X112208280Y-135243369D01*
X111827874Y-135085800D01*
X111416126Y-135085800D01*
X111035720Y-135243369D01*
X110744569Y-135534520D01*
X110710000Y-135617977D01*
X110710000Y-120735000D01*
X121429698Y-120735000D01*
X120430999Y-121733700D01*
X120430999Y-121733700D01*
G37*
X120430999Y-121733700D02*
X120264926Y-121733700D01*
X119884520Y-121891269D01*
X119593369Y-122182420D01*
X119435800Y-122562826D01*
X119435800Y-122734100D01*
X117261100Y-122734100D01*
X117261100Y-122661726D01*
X117103531Y-122281320D01*
X116812380Y-121990169D01*
X116431974Y-121832600D01*
X116020226Y-121832600D01*
X115639820Y-121990169D01*
X115348669Y-122281320D01*
X115191100Y-122661726D01*
X115191100Y-123073474D01*
X115348669Y-123453880D01*
X115639820Y-123745031D01*
X116020226Y-123902600D01*
X116186298Y-123902600D01*
X116262271Y-123978573D01*
X116304671Y-124042029D01*
X116368127Y-124084429D01*
X116556062Y-124210004D01*
X116604205Y-124219580D01*
X116777748Y-124254100D01*
X116777752Y-124254100D01*
X116852600Y-124268988D01*
X116927448Y-124254100D01*
X123019953Y-124254100D01*
X123094800Y-124268988D01*
X123169647Y-124254100D01*
X123169652Y-124254100D01*
X123391337Y-124210004D01*
X123642729Y-124042029D01*
X123685131Y-123978570D01*
X124715202Y-122948500D01*
X126233334Y-122948500D01*
X126105000Y-123258326D01*
X126105000Y-123670074D01*
X126262569Y-124050480D01*
X126542289Y-124330200D01*
X126397726Y-124330200D01*
X126017320Y-124487769D01*
X125899889Y-124605200D01*
X123967746Y-124605200D01*
X123892899Y-124590312D01*
X123818052Y-124605200D01*
X123818048Y-124605200D01*
X123596363Y-124649296D01*
X123596361Y-124649297D01*
X123596362Y-124649297D01*
X123408426Y-124774871D01*
X123408424Y-124774873D01*
X123344971Y-124817271D01*
X123302573Y-124880724D01*
X113952428Y-134230871D01*
X113888972Y-134273271D01*
X113846572Y-134336727D01*
X113846571Y-134336728D01*
X113827889Y-134364688D01*
X113720997Y-134524663D01*
X113684351Y-134708897D01*
X113662012Y-134821200D01*
X113676901Y-134896051D01*
X113676901Y-135360800D01*
X112325711Y-135360800D01*
X112208280Y-135243369D01*
X111827874Y-135085800D01*
X111416126Y-135085800D01*
X111035720Y-135243369D01*
X110744569Y-135534520D01*
X110710000Y-135617977D01*
X110710000Y-120735000D01*
X121429698Y-120735000D01*
X120430999Y-121733700D01*
G36*
X137444270Y-123982472D02*
X137486671Y-124045929D01*
X137550127Y-124088329D01*
X137738062Y-124213904D01*
X137786205Y-124223480D01*
X137959748Y-124258000D01*
X137959752Y-124258000D01*
X138034600Y-124272888D01*
X138109448Y-124258000D01*
X138291297Y-124258000D01*
X138158200Y-124579326D01*
X138158200Y-124991074D01*
X138315769Y-125371480D01*
X138433201Y-125488912D01*
X138433200Y-132027321D01*
X137897336Y-131432183D01*
X137165000Y-130900110D01*
X136338044Y-130531925D01*
X135452608Y-130343720D01*
X134547392Y-130343720D01*
X133661956Y-130531925D01*
X132835000Y-130900110D01*
X132102664Y-131432183D01*
X131522600Y-132076409D01*
X131522600Y-125035746D01*
X131537488Y-124960899D01*
X131522600Y-124886052D01*
X131522600Y-124886048D01*
X131478504Y-124664363D01*
X131410783Y-124563011D01*
X131352929Y-124476426D01*
X131352927Y-124476424D01*
X131310529Y-124412971D01*
X131247076Y-124370573D01*
X130300900Y-123424398D01*
X130300900Y-123258326D01*
X130172566Y-122948500D01*
X136410299Y-122948500D01*
X137444270Y-123982472D01*
X137444270Y-123982472D01*
G37*
X137444270Y-123982472D02*
X137486671Y-124045929D01*
X137550127Y-124088329D01*
X137738062Y-124213904D01*
X137786205Y-124223480D01*
X137959748Y-124258000D01*
X137959752Y-124258000D01*
X138034600Y-124272888D01*
X138109448Y-124258000D01*
X138291297Y-124258000D01*
X138158200Y-124579326D01*
X138158200Y-124991074D01*
X138315769Y-125371480D01*
X138433201Y-125488912D01*
X138433200Y-132027321D01*
X137897336Y-131432183D01*
X137165000Y-130900110D01*
X136338044Y-130531925D01*
X135452608Y-130343720D01*
X134547392Y-130343720D01*
X133661956Y-130531925D01*
X132835000Y-130900110D01*
X132102664Y-131432183D01*
X131522600Y-132076409D01*
X131522600Y-125035746D01*
X131537488Y-124960899D01*
X131522600Y-124886052D01*
X131522600Y-124886048D01*
X131478504Y-124664363D01*
X131410783Y-124563011D01*
X131352929Y-124476426D01*
X131352927Y-124476424D01*
X131310529Y-124412971D01*
X131247076Y-124370573D01*
X130300900Y-123424398D01*
X130300900Y-123258326D01*
X130172566Y-122948500D01*
X136410299Y-122948500D01*
X137444270Y-123982472D01*
G36*
X159290001Y-105703453D02*
X159238119Y-105738119D01*
X159081195Y-105972972D01*
X159026091Y-106250000D01*
X159040001Y-106319931D01*
X159040000Y-114290000D01*
X110960000Y-114290000D01*
X110960000Y-106319925D01*
X110973909Y-106250000D01*
X110959568Y-106177900D01*
X110918805Y-105972972D01*
X110761881Y-105738119D01*
X110710000Y-105703453D01*
X110710000Y-101623623D01*
X110744569Y-101707080D01*
X111035720Y-101998231D01*
X111416126Y-102155800D01*
X111827874Y-102155800D01*
X112208280Y-101998231D01*
X112325711Y-101880800D01*
X114122099Y-101880800D01*
X120468797Y-108227500D01*
X119886402Y-108227500D01*
X118868400Y-107209499D01*
X118868400Y-107043426D01*
X118710831Y-106663020D01*
X118419680Y-106371869D01*
X118039274Y-106214300D01*
X117627526Y-106214300D01*
X117247120Y-106371869D01*
X116955969Y-106663020D01*
X116798400Y-107043426D01*
X116798400Y-107455174D01*
X116955969Y-107835580D01*
X117247120Y-108126731D01*
X117627526Y-108284300D01*
X117793599Y-108284300D01*
X118981271Y-109471973D01*
X119023671Y-109535429D01*
X119275063Y-109703404D01*
X119496748Y-109747500D01*
X119496752Y-109747500D01*
X119571599Y-109762388D01*
X119646446Y-109747500D01*
X155337253Y-109747500D01*
X155412100Y-109762388D01*
X155486947Y-109747500D01*
X155486952Y-109747500D01*
X155708637Y-109703404D01*
X155960029Y-109535429D01*
X156002431Y-109471970D01*
X157378973Y-108095429D01*
X157442429Y-108053029D01*
X157610404Y-107801637D01*
X157654500Y-107579952D01*
X157654500Y-107579948D01*
X157669388Y-107505101D01*
X157654500Y-107430254D01*
X157654500Y-91170248D01*
X157669388Y-91095400D01*
X157654500Y-91020552D01*
X157654500Y-91020548D01*
X157610404Y-90798863D01*
X157610404Y-90798862D01*
X157484829Y-90610927D01*
X157442429Y-90547471D01*
X157378973Y-90505071D01*
X157119100Y-90245198D01*
X157119100Y-90079126D01*
X156961531Y-89698720D01*
X156670380Y-89407569D01*
X156289974Y-89250000D01*
X155878226Y-89250000D01*
X155497820Y-89407569D01*
X155206669Y-89698720D01*
X155049100Y-90079126D01*
X155049100Y-90490874D01*
X155206669Y-90871280D01*
X155497820Y-91162431D01*
X155878226Y-91320000D01*
X156044298Y-91320000D01*
X156134501Y-91410203D01*
X156134501Y-92628099D01*
X151971900Y-88465499D01*
X151971900Y-88299426D01*
X151814331Y-87919020D01*
X151523180Y-87627869D01*
X151142774Y-87470300D01*
X150731026Y-87470300D01*
X150350620Y-87627869D01*
X150197445Y-87781044D01*
X148151401Y-85735000D01*
X159290000Y-85735000D01*
X159290001Y-105703453D01*
X159290001Y-105703453D01*
G37*
X159290001Y-105703453D02*
X159238119Y-105738119D01*
X159081195Y-105972972D01*
X159026091Y-106250000D01*
X159040001Y-106319931D01*
X159040000Y-114290000D01*
X110960000Y-114290000D01*
X110960000Y-106319925D01*
X110973909Y-106250000D01*
X110959568Y-106177900D01*
X110918805Y-105972972D01*
X110761881Y-105738119D01*
X110710000Y-105703453D01*
X110710000Y-101623623D01*
X110744569Y-101707080D01*
X111035720Y-101998231D01*
X111416126Y-102155800D01*
X111827874Y-102155800D01*
X112208280Y-101998231D01*
X112325711Y-101880800D01*
X114122099Y-101880800D01*
X120468797Y-108227500D01*
X119886402Y-108227500D01*
X118868400Y-107209499D01*
X118868400Y-107043426D01*
X118710831Y-106663020D01*
X118419680Y-106371869D01*
X118039274Y-106214300D01*
X117627526Y-106214300D01*
X117247120Y-106371869D01*
X116955969Y-106663020D01*
X116798400Y-107043426D01*
X116798400Y-107455174D01*
X116955969Y-107835580D01*
X117247120Y-108126731D01*
X117627526Y-108284300D01*
X117793599Y-108284300D01*
X118981271Y-109471973D01*
X119023671Y-109535429D01*
X119275063Y-109703404D01*
X119496748Y-109747500D01*
X119496752Y-109747500D01*
X119571599Y-109762388D01*
X119646446Y-109747500D01*
X155337253Y-109747500D01*
X155412100Y-109762388D01*
X155486947Y-109747500D01*
X155486952Y-109747500D01*
X155708637Y-109703404D01*
X155960029Y-109535429D01*
X156002431Y-109471970D01*
X157378973Y-108095429D01*
X157442429Y-108053029D01*
X157610404Y-107801637D01*
X157654500Y-107579952D01*
X157654500Y-107579948D01*
X157669388Y-107505101D01*
X157654500Y-107430254D01*
X157654500Y-91170248D01*
X157669388Y-91095400D01*
X157654500Y-91020552D01*
X157654500Y-91020548D01*
X157610404Y-90798863D01*
X157610404Y-90798862D01*
X157484829Y-90610927D01*
X157442429Y-90547471D01*
X157378973Y-90505071D01*
X157119100Y-90245198D01*
X157119100Y-90079126D01*
X156961531Y-89698720D01*
X156670380Y-89407569D01*
X156289974Y-89250000D01*
X155878226Y-89250000D01*
X155497820Y-89407569D01*
X155206669Y-89698720D01*
X155049100Y-90079126D01*
X155049100Y-90490874D01*
X155206669Y-90871280D01*
X155497820Y-91162431D01*
X155878226Y-91320000D01*
X156044298Y-91320000D01*
X156134501Y-91410203D01*
X156134501Y-92628099D01*
X151971900Y-88465499D01*
X151971900Y-88299426D01*
X151814331Y-87919020D01*
X151523180Y-87627869D01*
X151142774Y-87470300D01*
X150731026Y-87470300D01*
X150350620Y-87627869D01*
X150197445Y-87781044D01*
X148151401Y-85735000D01*
X159290000Y-85735000D01*
X159290001Y-105703453D01*
G36*
X141186101Y-89835203D02*
X141186100Y-90734098D01*
X140336728Y-91583471D01*
X140273272Y-91625871D01*
X140230872Y-91689327D01*
X140230871Y-91689328D01*
X140105297Y-91877263D01*
X140046312Y-92173800D01*
X140061201Y-92248652D01*
X140061200Y-103386898D01*
X138960199Y-104487900D01*
X138794126Y-104487900D01*
X138413720Y-104645469D01*
X138122569Y-104936620D01*
X137965000Y-105317026D01*
X137965000Y-105525700D01*
X135800701Y-105525700D01*
X139677676Y-101648727D01*
X139741129Y-101606329D01*
X139783527Y-101542876D01*
X139783529Y-101542874D01*
X139876942Y-101403071D01*
X139909104Y-101354937D01*
X139953200Y-101133252D01*
X139953200Y-101133248D01*
X139968088Y-101058401D01*
X139953200Y-100983554D01*
X139953200Y-90488911D01*
X140070631Y-90371480D01*
X140228200Y-89991074D01*
X140228200Y-89579326D01*
X140095103Y-89258000D01*
X140608899Y-89258000D01*
X141186101Y-89835203D01*
X141186101Y-89835203D01*
G37*
X141186101Y-89835203D02*
X141186100Y-90734098D01*
X140336728Y-91583471D01*
X140273272Y-91625871D01*
X140230872Y-91689327D01*
X140230871Y-91689328D01*
X140105297Y-91877263D01*
X140046312Y-92173800D01*
X140061201Y-92248652D01*
X140061200Y-103386898D01*
X138960199Y-104487900D01*
X138794126Y-104487900D01*
X138413720Y-104645469D01*
X138122569Y-104936620D01*
X137965000Y-105317026D01*
X137965000Y-105525700D01*
X135800701Y-105525700D01*
X139677676Y-101648727D01*
X139741129Y-101606329D01*
X139783527Y-101542876D01*
X139783529Y-101542874D01*
X139876942Y-101403071D01*
X139909104Y-101354937D01*
X139953200Y-101133252D01*
X139953200Y-101133248D01*
X139968088Y-101058401D01*
X139953200Y-100983554D01*
X139953200Y-90488911D01*
X140070631Y-90371480D01*
X140228200Y-89991074D01*
X140228200Y-89579326D01*
X140095103Y-89258000D01*
X140608899Y-89258000D01*
X141186101Y-89835203D01*
G36*
X120430999Y-86733700D02*
X120264926Y-86733700D01*
X119884520Y-86891269D01*
X119593369Y-87182420D01*
X119435800Y-87562826D01*
X119435800Y-87734100D01*
X117261100Y-87734100D01*
X117261100Y-87661726D01*
X117103531Y-87281320D01*
X116812380Y-86990169D01*
X116431974Y-86832600D01*
X116020226Y-86832600D01*
X115639820Y-86990169D01*
X115348669Y-87281320D01*
X115191100Y-87661726D01*
X115191100Y-88073474D01*
X115348669Y-88453880D01*
X115639820Y-88745031D01*
X116020226Y-88902600D01*
X116186298Y-88902600D01*
X116262271Y-88978573D01*
X116304671Y-89042029D01*
X116368127Y-89084429D01*
X116556062Y-89210004D01*
X116604205Y-89219580D01*
X116777748Y-89254100D01*
X116777752Y-89254100D01*
X116852600Y-89268988D01*
X116927448Y-89254100D01*
X123019953Y-89254100D01*
X123094800Y-89268988D01*
X123169647Y-89254100D01*
X123169652Y-89254100D01*
X123391337Y-89210004D01*
X123642729Y-89042029D01*
X123685131Y-88978570D01*
X124715202Y-87948500D01*
X126233334Y-87948500D01*
X126105000Y-88258326D01*
X126105000Y-88670074D01*
X126262569Y-89050480D01*
X126542289Y-89330200D01*
X126397726Y-89330200D01*
X126017320Y-89487769D01*
X125899889Y-89605200D01*
X123967746Y-89605200D01*
X123892899Y-89590312D01*
X123818052Y-89605200D01*
X123818048Y-89605200D01*
X123596363Y-89649296D01*
X123596361Y-89649297D01*
X123596362Y-89649297D01*
X123408426Y-89774871D01*
X123408424Y-89774873D01*
X123344971Y-89817271D01*
X123302573Y-89880724D01*
X113952428Y-99230871D01*
X113888972Y-99273271D01*
X113846572Y-99336727D01*
X113846571Y-99336728D01*
X113827889Y-99364688D01*
X113720997Y-99524663D01*
X113684351Y-99708897D01*
X113662012Y-99821200D01*
X113676901Y-99896051D01*
X113676901Y-100360800D01*
X112325711Y-100360800D01*
X112208280Y-100243369D01*
X111827874Y-100085800D01*
X111416126Y-100085800D01*
X111035720Y-100243369D01*
X110744569Y-100534520D01*
X110710000Y-100617977D01*
X110710000Y-85735000D01*
X121429698Y-85735000D01*
X120430999Y-86733700D01*
X120430999Y-86733700D01*
G37*
X120430999Y-86733700D02*
X120264926Y-86733700D01*
X119884520Y-86891269D01*
X119593369Y-87182420D01*
X119435800Y-87562826D01*
X119435800Y-87734100D01*
X117261100Y-87734100D01*
X117261100Y-87661726D01*
X117103531Y-87281320D01*
X116812380Y-86990169D01*
X116431974Y-86832600D01*
X116020226Y-86832600D01*
X115639820Y-86990169D01*
X115348669Y-87281320D01*
X115191100Y-87661726D01*
X115191100Y-88073474D01*
X115348669Y-88453880D01*
X115639820Y-88745031D01*
X116020226Y-88902600D01*
X116186298Y-88902600D01*
X116262271Y-88978573D01*
X116304671Y-89042029D01*
X116368127Y-89084429D01*
X116556062Y-89210004D01*
X116604205Y-89219580D01*
X116777748Y-89254100D01*
X116777752Y-89254100D01*
X116852600Y-89268988D01*
X116927448Y-89254100D01*
X123019953Y-89254100D01*
X123094800Y-89268988D01*
X123169647Y-89254100D01*
X123169652Y-89254100D01*
X123391337Y-89210004D01*
X123642729Y-89042029D01*
X123685131Y-88978570D01*
X124715202Y-87948500D01*
X126233334Y-87948500D01*
X126105000Y-88258326D01*
X126105000Y-88670074D01*
X126262569Y-89050480D01*
X126542289Y-89330200D01*
X126397726Y-89330200D01*
X126017320Y-89487769D01*
X125899889Y-89605200D01*
X123967746Y-89605200D01*
X123892899Y-89590312D01*
X123818052Y-89605200D01*
X123818048Y-89605200D01*
X123596363Y-89649296D01*
X123596361Y-89649297D01*
X123596362Y-89649297D01*
X123408426Y-89774871D01*
X123408424Y-89774873D01*
X123344971Y-89817271D01*
X123302573Y-89880724D01*
X113952428Y-99230871D01*
X113888972Y-99273271D01*
X113846572Y-99336727D01*
X113846571Y-99336728D01*
X113827889Y-99364688D01*
X113720997Y-99524663D01*
X113684351Y-99708897D01*
X113662012Y-99821200D01*
X113676901Y-99896051D01*
X113676901Y-100360800D01*
X112325711Y-100360800D01*
X112208280Y-100243369D01*
X111827874Y-100085800D01*
X111416126Y-100085800D01*
X111035720Y-100243369D01*
X110744569Y-100534520D01*
X110710000Y-100617977D01*
X110710000Y-85735000D01*
X121429698Y-85735000D01*
X120430999Y-86733700D01*
G36*
X137444270Y-88982472D02*
X137486671Y-89045929D01*
X137550127Y-89088329D01*
X137738062Y-89213904D01*
X137786205Y-89223480D01*
X137959748Y-89258000D01*
X137959752Y-89258000D01*
X138034600Y-89272888D01*
X138109448Y-89258000D01*
X138291297Y-89258000D01*
X138158200Y-89579326D01*
X138158200Y-89991074D01*
X138315769Y-90371480D01*
X138433201Y-90488912D01*
X138433200Y-97027321D01*
X137897336Y-96432183D01*
X137165000Y-95900110D01*
X136338044Y-95531925D01*
X135452608Y-95343720D01*
X134547392Y-95343720D01*
X133661956Y-95531925D01*
X132835000Y-95900110D01*
X132102664Y-96432183D01*
X131522600Y-97076409D01*
X131522600Y-90035746D01*
X131537488Y-89960899D01*
X131522600Y-89886052D01*
X131522600Y-89886048D01*
X131478504Y-89664363D01*
X131410783Y-89563011D01*
X131352929Y-89476426D01*
X131352927Y-89476424D01*
X131310529Y-89412971D01*
X131247076Y-89370573D01*
X130300900Y-88424398D01*
X130300900Y-88258326D01*
X130172566Y-87948500D01*
X136410299Y-87948500D01*
X137444270Y-88982472D01*
X137444270Y-88982472D01*
G37*
X137444270Y-88982472D02*
X137486671Y-89045929D01*
X137550127Y-89088329D01*
X137738062Y-89213904D01*
X137786205Y-89223480D01*
X137959748Y-89258000D01*
X137959752Y-89258000D01*
X138034600Y-89272888D01*
X138109448Y-89258000D01*
X138291297Y-89258000D01*
X138158200Y-89579326D01*
X138158200Y-89991074D01*
X138315769Y-90371480D01*
X138433201Y-90488912D01*
X138433200Y-97027321D01*
X137897336Y-96432183D01*
X137165000Y-95900110D01*
X136338044Y-95531925D01*
X135452608Y-95343720D01*
X134547392Y-95343720D01*
X133661956Y-95531925D01*
X132835000Y-95900110D01*
X132102664Y-96432183D01*
X131522600Y-97076409D01*
X131522600Y-90035746D01*
X131537488Y-89960899D01*
X131522600Y-89886052D01*
X131522600Y-89886048D01*
X131478504Y-89664363D01*
X131410783Y-89563011D01*
X131352929Y-89476426D01*
X131352927Y-89476424D01*
X131310529Y-89412971D01*
X131247076Y-89370573D01*
X130300900Y-88424398D01*
X130300900Y-88258326D01*
X130172566Y-87948500D01*
X136410299Y-87948500D01*
X137444270Y-88982472D01*
G36*
X159290001Y-70703453D02*
X159238119Y-70738119D01*
X159081195Y-70972972D01*
X159026091Y-71250000D01*
X159040001Y-71319931D01*
X159040000Y-79290000D01*
X110960000Y-79290000D01*
X110960000Y-71319925D01*
X110973909Y-71250000D01*
X110959568Y-71177900D01*
X110918805Y-70972972D01*
X110761881Y-70738119D01*
X110710000Y-70703453D01*
X110710000Y-66623623D01*
X110744569Y-66707080D01*
X111035720Y-66998231D01*
X111416126Y-67155800D01*
X111827874Y-67155800D01*
X112208280Y-66998231D01*
X112325711Y-66880800D01*
X114122099Y-66880800D01*
X120468797Y-73227500D01*
X119886402Y-73227500D01*
X118868400Y-72209499D01*
X118868400Y-72043426D01*
X118710831Y-71663020D01*
X118419680Y-71371869D01*
X118039274Y-71214300D01*
X117627526Y-71214300D01*
X117247120Y-71371869D01*
X116955969Y-71663020D01*
X116798400Y-72043426D01*
X116798400Y-72455174D01*
X116955969Y-72835580D01*
X117247120Y-73126731D01*
X117627526Y-73284300D01*
X117793599Y-73284300D01*
X118981271Y-74471973D01*
X119023671Y-74535429D01*
X119275063Y-74703404D01*
X119496748Y-74747500D01*
X119496752Y-74747500D01*
X119571599Y-74762388D01*
X119646446Y-74747500D01*
X155337253Y-74747500D01*
X155412100Y-74762388D01*
X155486947Y-74747500D01*
X155486952Y-74747500D01*
X155708637Y-74703404D01*
X155960029Y-74535429D01*
X156002431Y-74471970D01*
X157378973Y-73095429D01*
X157442429Y-73053029D01*
X157610404Y-72801637D01*
X157654500Y-72579952D01*
X157654500Y-72579948D01*
X157669388Y-72505101D01*
X157654500Y-72430254D01*
X157654500Y-56170248D01*
X157669388Y-56095400D01*
X157654500Y-56020552D01*
X157654500Y-56020548D01*
X157610404Y-55798863D01*
X157610404Y-55798862D01*
X157484829Y-55610927D01*
X157442429Y-55547471D01*
X157378973Y-55505071D01*
X157119100Y-55245198D01*
X157119100Y-55079126D01*
X156961531Y-54698720D01*
X156670380Y-54407569D01*
X156289974Y-54250000D01*
X155878226Y-54250000D01*
X155497820Y-54407569D01*
X155206669Y-54698720D01*
X155049100Y-55079126D01*
X155049100Y-55490874D01*
X155206669Y-55871280D01*
X155497820Y-56162431D01*
X155878226Y-56320000D01*
X156044298Y-56320000D01*
X156134501Y-56410203D01*
X156134501Y-57628099D01*
X151971900Y-53465499D01*
X151971900Y-53299426D01*
X151814331Y-52919020D01*
X151523180Y-52627869D01*
X151142774Y-52470300D01*
X150731026Y-52470300D01*
X150350620Y-52627869D01*
X150197445Y-52781044D01*
X148151401Y-50735000D01*
X159290000Y-50735000D01*
X159290001Y-70703453D01*
X159290001Y-70703453D01*
G37*
X159290001Y-70703453D02*
X159238119Y-70738119D01*
X159081195Y-70972972D01*
X159026091Y-71250000D01*
X159040001Y-71319931D01*
X159040000Y-79290000D01*
X110960000Y-79290000D01*
X110960000Y-71319925D01*
X110973909Y-71250000D01*
X110959568Y-71177900D01*
X110918805Y-70972972D01*
X110761881Y-70738119D01*
X110710000Y-70703453D01*
X110710000Y-66623623D01*
X110744569Y-66707080D01*
X111035720Y-66998231D01*
X111416126Y-67155800D01*
X111827874Y-67155800D01*
X112208280Y-66998231D01*
X112325711Y-66880800D01*
X114122099Y-66880800D01*
X120468797Y-73227500D01*
X119886402Y-73227500D01*
X118868400Y-72209499D01*
X118868400Y-72043426D01*
X118710831Y-71663020D01*
X118419680Y-71371869D01*
X118039274Y-71214300D01*
X117627526Y-71214300D01*
X117247120Y-71371869D01*
X116955969Y-71663020D01*
X116798400Y-72043426D01*
X116798400Y-72455174D01*
X116955969Y-72835580D01*
X117247120Y-73126731D01*
X117627526Y-73284300D01*
X117793599Y-73284300D01*
X118981271Y-74471973D01*
X119023671Y-74535429D01*
X119275063Y-74703404D01*
X119496748Y-74747500D01*
X119496752Y-74747500D01*
X119571599Y-74762388D01*
X119646446Y-74747500D01*
X155337253Y-74747500D01*
X155412100Y-74762388D01*
X155486947Y-74747500D01*
X155486952Y-74747500D01*
X155708637Y-74703404D01*
X155960029Y-74535429D01*
X156002431Y-74471970D01*
X157378973Y-73095429D01*
X157442429Y-73053029D01*
X157610404Y-72801637D01*
X157654500Y-72579952D01*
X157654500Y-72579948D01*
X157669388Y-72505101D01*
X157654500Y-72430254D01*
X157654500Y-56170248D01*
X157669388Y-56095400D01*
X157654500Y-56020552D01*
X157654500Y-56020548D01*
X157610404Y-55798863D01*
X157610404Y-55798862D01*
X157484829Y-55610927D01*
X157442429Y-55547471D01*
X157378973Y-55505071D01*
X157119100Y-55245198D01*
X157119100Y-55079126D01*
X156961531Y-54698720D01*
X156670380Y-54407569D01*
X156289974Y-54250000D01*
X155878226Y-54250000D01*
X155497820Y-54407569D01*
X155206669Y-54698720D01*
X155049100Y-55079126D01*
X155049100Y-55490874D01*
X155206669Y-55871280D01*
X155497820Y-56162431D01*
X155878226Y-56320000D01*
X156044298Y-56320000D01*
X156134501Y-56410203D01*
X156134501Y-57628099D01*
X151971900Y-53465499D01*
X151971900Y-53299426D01*
X151814331Y-52919020D01*
X151523180Y-52627869D01*
X151142774Y-52470300D01*
X150731026Y-52470300D01*
X150350620Y-52627869D01*
X150197445Y-52781044D01*
X148151401Y-50735000D01*
X159290000Y-50735000D01*
X159290001Y-70703453D01*
G36*
X141186101Y-54835203D02*
X141186100Y-55734098D01*
X140336728Y-56583471D01*
X140273272Y-56625871D01*
X140230872Y-56689327D01*
X140230871Y-56689328D01*
X140105297Y-56877263D01*
X140046312Y-57173800D01*
X140061201Y-57248652D01*
X140061200Y-68386898D01*
X138960199Y-69487900D01*
X138794126Y-69487900D01*
X138413720Y-69645469D01*
X138122569Y-69936620D01*
X137965000Y-70317026D01*
X137965000Y-70525700D01*
X135800701Y-70525700D01*
X139677676Y-66648727D01*
X139741129Y-66606329D01*
X139783527Y-66542876D01*
X139783529Y-66542874D01*
X139876942Y-66403071D01*
X139909104Y-66354937D01*
X139953200Y-66133252D01*
X139953200Y-66133248D01*
X139968088Y-66058401D01*
X139953200Y-65983554D01*
X139953200Y-55488911D01*
X140070631Y-55371480D01*
X140228200Y-54991074D01*
X140228200Y-54579326D01*
X140095103Y-54258000D01*
X140608899Y-54258000D01*
X141186101Y-54835203D01*
X141186101Y-54835203D01*
G37*
X141186101Y-54835203D02*
X141186100Y-55734098D01*
X140336728Y-56583471D01*
X140273272Y-56625871D01*
X140230872Y-56689327D01*
X140230871Y-56689328D01*
X140105297Y-56877263D01*
X140046312Y-57173800D01*
X140061201Y-57248652D01*
X140061200Y-68386898D01*
X138960199Y-69487900D01*
X138794126Y-69487900D01*
X138413720Y-69645469D01*
X138122569Y-69936620D01*
X137965000Y-70317026D01*
X137965000Y-70525700D01*
X135800701Y-70525700D01*
X139677676Y-66648727D01*
X139741129Y-66606329D01*
X139783527Y-66542876D01*
X139783529Y-66542874D01*
X139876942Y-66403071D01*
X139909104Y-66354937D01*
X139953200Y-66133252D01*
X139953200Y-66133248D01*
X139968088Y-66058401D01*
X139953200Y-65983554D01*
X139953200Y-55488911D01*
X140070631Y-55371480D01*
X140228200Y-54991074D01*
X140228200Y-54579326D01*
X140095103Y-54258000D01*
X140608899Y-54258000D01*
X141186101Y-54835203D01*
G36*
X120430999Y-51733700D02*
X120264926Y-51733700D01*
X119884520Y-51891269D01*
X119593369Y-52182420D01*
X119435800Y-52562826D01*
X119435800Y-52734100D01*
X117261100Y-52734100D01*
X117261100Y-52661726D01*
X117103531Y-52281320D01*
X116812380Y-51990169D01*
X116431974Y-51832600D01*
X116020226Y-51832600D01*
X115639820Y-51990169D01*
X115348669Y-52281320D01*
X115191100Y-52661726D01*
X115191100Y-53073474D01*
X115348669Y-53453880D01*
X115639820Y-53745031D01*
X116020226Y-53902600D01*
X116186298Y-53902600D01*
X116262271Y-53978573D01*
X116304671Y-54042029D01*
X116368127Y-54084429D01*
X116556062Y-54210004D01*
X116604205Y-54219580D01*
X116777748Y-54254100D01*
X116777752Y-54254100D01*
X116852600Y-54268988D01*
X116927448Y-54254100D01*
X123019953Y-54254100D01*
X123094800Y-54268988D01*
X123169647Y-54254100D01*
X123169652Y-54254100D01*
X123391337Y-54210004D01*
X123642729Y-54042029D01*
X123685131Y-53978570D01*
X124715202Y-52948500D01*
X126233334Y-52948500D01*
X126105000Y-53258326D01*
X126105000Y-53670074D01*
X126262569Y-54050480D01*
X126542289Y-54330200D01*
X126397726Y-54330200D01*
X126017320Y-54487769D01*
X125899889Y-54605200D01*
X123967746Y-54605200D01*
X123892899Y-54590312D01*
X123818052Y-54605200D01*
X123818048Y-54605200D01*
X123596363Y-54649296D01*
X123596361Y-54649297D01*
X123596362Y-54649297D01*
X123408426Y-54774871D01*
X123408424Y-54774873D01*
X123344971Y-54817271D01*
X123302573Y-54880724D01*
X113952428Y-64230871D01*
X113888972Y-64273271D01*
X113846572Y-64336727D01*
X113846571Y-64336728D01*
X113827889Y-64364688D01*
X113720997Y-64524663D01*
X113684351Y-64708897D01*
X113662012Y-64821200D01*
X113676901Y-64896051D01*
X113676901Y-65360800D01*
X112325711Y-65360800D01*
X112208280Y-65243369D01*
X111827874Y-65085800D01*
X111416126Y-65085800D01*
X111035720Y-65243369D01*
X110744569Y-65534520D01*
X110710000Y-65617977D01*
X110710000Y-50735000D01*
X121429698Y-50735000D01*
X120430999Y-51733700D01*
X120430999Y-51733700D01*
G37*
X120430999Y-51733700D02*
X120264926Y-51733700D01*
X119884520Y-51891269D01*
X119593369Y-52182420D01*
X119435800Y-52562826D01*
X119435800Y-52734100D01*
X117261100Y-52734100D01*
X117261100Y-52661726D01*
X117103531Y-52281320D01*
X116812380Y-51990169D01*
X116431974Y-51832600D01*
X116020226Y-51832600D01*
X115639820Y-51990169D01*
X115348669Y-52281320D01*
X115191100Y-52661726D01*
X115191100Y-53073474D01*
X115348669Y-53453880D01*
X115639820Y-53745031D01*
X116020226Y-53902600D01*
X116186298Y-53902600D01*
X116262271Y-53978573D01*
X116304671Y-54042029D01*
X116368127Y-54084429D01*
X116556062Y-54210004D01*
X116604205Y-54219580D01*
X116777748Y-54254100D01*
X116777752Y-54254100D01*
X116852600Y-54268988D01*
X116927448Y-54254100D01*
X123019953Y-54254100D01*
X123094800Y-54268988D01*
X123169647Y-54254100D01*
X123169652Y-54254100D01*
X123391337Y-54210004D01*
X123642729Y-54042029D01*
X123685131Y-53978570D01*
X124715202Y-52948500D01*
X126233334Y-52948500D01*
X126105000Y-53258326D01*
X126105000Y-53670074D01*
X126262569Y-54050480D01*
X126542289Y-54330200D01*
X126397726Y-54330200D01*
X126017320Y-54487769D01*
X125899889Y-54605200D01*
X123967746Y-54605200D01*
X123892899Y-54590312D01*
X123818052Y-54605200D01*
X123818048Y-54605200D01*
X123596363Y-54649296D01*
X123596361Y-54649297D01*
X123596362Y-54649297D01*
X123408426Y-54774871D01*
X123408424Y-54774873D01*
X123344971Y-54817271D01*
X123302573Y-54880724D01*
X113952428Y-64230871D01*
X113888972Y-64273271D01*
X113846572Y-64336727D01*
X113846571Y-64336728D01*
X113827889Y-64364688D01*
X113720997Y-64524663D01*
X113684351Y-64708897D01*
X113662012Y-64821200D01*
X113676901Y-64896051D01*
X113676901Y-65360800D01*
X112325711Y-65360800D01*
X112208280Y-65243369D01*
X111827874Y-65085800D01*
X111416126Y-65085800D01*
X111035720Y-65243369D01*
X110744569Y-65534520D01*
X110710000Y-65617977D01*
X110710000Y-50735000D01*
X121429698Y-50735000D01*
X120430999Y-51733700D01*
G36*
X137444270Y-53982472D02*
X137486671Y-54045929D01*
X137550127Y-54088329D01*
X137738062Y-54213904D01*
X137786205Y-54223480D01*
X137959748Y-54258000D01*
X137959752Y-54258000D01*
X138034600Y-54272888D01*
X138109448Y-54258000D01*
X138291297Y-54258000D01*
X138158200Y-54579326D01*
X138158200Y-54991074D01*
X138315769Y-55371480D01*
X138433201Y-55488912D01*
X138433200Y-62027321D01*
X137897336Y-61432183D01*
X137165000Y-60900110D01*
X136338044Y-60531925D01*
X135452608Y-60343720D01*
X134547392Y-60343720D01*
X133661956Y-60531925D01*
X132835000Y-60900110D01*
X132102664Y-61432183D01*
X131522600Y-62076409D01*
X131522600Y-55035746D01*
X131537488Y-54960899D01*
X131522600Y-54886052D01*
X131522600Y-54886048D01*
X131478504Y-54664363D01*
X131410783Y-54563011D01*
X131352929Y-54476426D01*
X131352927Y-54476424D01*
X131310529Y-54412971D01*
X131247076Y-54370573D01*
X130300900Y-53424398D01*
X130300900Y-53258326D01*
X130172566Y-52948500D01*
X136410299Y-52948500D01*
X137444270Y-53982472D01*
X137444270Y-53982472D01*
G37*
X137444270Y-53982472D02*
X137486671Y-54045929D01*
X137550127Y-54088329D01*
X137738062Y-54213904D01*
X137786205Y-54223480D01*
X137959748Y-54258000D01*
X137959752Y-54258000D01*
X138034600Y-54272888D01*
X138109448Y-54258000D01*
X138291297Y-54258000D01*
X138158200Y-54579326D01*
X138158200Y-54991074D01*
X138315769Y-55371480D01*
X138433201Y-55488912D01*
X138433200Y-62027321D01*
X137897336Y-61432183D01*
X137165000Y-60900110D01*
X136338044Y-60531925D01*
X135452608Y-60343720D01*
X134547392Y-60343720D01*
X133661956Y-60531925D01*
X132835000Y-60900110D01*
X132102664Y-61432183D01*
X131522600Y-62076409D01*
X131522600Y-55035746D01*
X131537488Y-54960899D01*
X131522600Y-54886052D01*
X131522600Y-54886048D01*
X131478504Y-54664363D01*
X131410783Y-54563011D01*
X131352929Y-54476426D01*
X131352927Y-54476424D01*
X131310529Y-54412971D01*
X131247076Y-54370573D01*
X130300900Y-53424398D01*
X130300900Y-53258326D01*
X130172566Y-52948500D01*
X136410299Y-52948500D01*
X137444270Y-53982472D01*
G04 #@! TD*
M02*
