M48
;DRILL file {KiCad (5.0.0)} date 11/07/18 01:06:10
;FORMAT={3:3/ absolute / metric / suppress leading zeros}
FMAT,2
METRIC,TZ
T1C0.400
%
G90
G05
M71
T1
X61622Y-66121
X61622Y-101121
X61622Y-136121
X65162Y-65498
X65162Y-100498
X65162Y-135498
X66226Y-52868
X66226Y-87868
X66226Y-122868
X67833Y-72249
X67833Y-107249
X67833Y-142249
X68600Y-61691
X68600Y-96691
X68600Y-131691
X70471Y-52769
X70471Y-87769
X70471Y-122769
X70482Y-55088
X70482Y-90087
X70482Y-125088
X70810Y-62264
X70810Y-97264
X70810Y-132264
X73170Y-60623
X73170Y-95623
X73170Y-130623
X73203Y-61984
X73203Y-96983
X73203Y-131984
X73612Y-68300
X73612Y-103300
X73612Y-138300
X73818Y-63890
X73818Y-98890
X73818Y-133890
X75111Y-60041
X75111Y-95041
X75111Y-130041
X75208Y-61643
X75208Y-96643
X75208Y-131643
X76417Y-57250
X76417Y-92250
X76417Y-127250
X76492Y-58589
X76492Y-93589
X76492Y-128589
X76562Y-60289
X76562Y-95289
X76562Y-130289
X76604Y-55365
X76604Y-90365
X76604Y-125365
X77140Y-53464
X77140Y-88464
X77140Y-123464
X77894Y-67838
X77894Y-102838
X77894Y-137838
X78233Y-53464
X78233Y-88464
X78233Y-123464
X78373Y-68955
X78373Y-103955
X78373Y-138955
X79160Y-69741
X79160Y-104741
X79160Y-139741
X79266Y-53464
X79266Y-88464
X79266Y-123464
X79881Y-70462
X79881Y-105462
X79881Y-140462
X80275Y-68555
X80275Y-103555
X80275Y-138555
X81332Y-70544
X81332Y-105544
X81332Y-140544
X82750Y-70543
X82750Y-105543
X82750Y-140543
X84297Y-70560
X84297Y-105560
X84297Y-140560
X84333Y-69544
X84333Y-104544
X84333Y-139544
X87771Y-52208
X87771Y-87208
X87771Y-122208
X89000Y-70523
X89000Y-105523
X89000Y-140523
X89193Y-54785
X89193Y-89785
X89193Y-124785
X91221Y-55748
X91221Y-90748
X91221Y-125748
X91529Y-70557
X91529Y-105557
X91529Y-140557
X91718Y-57316
X91718Y-92316
X91718Y-127316
X92681Y-69966
X92681Y-104966
X92681Y-139966
X92687Y-55250
X92687Y-90250
X92687Y-125250
X93354Y-56796
X93354Y-91796
X93354Y-126796
X93406Y-69187
X93406Y-104187
X93406Y-139187
X94881Y-66101
X94881Y-101101
X94881Y-136101
X95307Y-67606
X95307Y-102606
X95307Y-137606
X96387Y-51750
X96387Y-86750
X96387Y-121750
X97536Y-68919
X97536Y-103919
X97536Y-138919
X99909Y-66715
X99909Y-101715
X99909Y-136715
X100617Y-59310
X100617Y-94310
X100617Y-129310
X100622Y-60365
X100622Y-95365
X100622Y-130365
X100937Y-53505
X100937Y-88505
X100937Y-123505
X101302Y-55691
X101302Y-90691
X101302Y-125691
X101969Y-72244
X101969Y-107244
X101969Y-142244
X102375Y-66879
X102375Y-101879
X102375Y-136879
X103750Y-72209
X103750Y-107209
X103750Y-142209
X103820Y-51259
X103820Y-86259
X103820Y-121259
X104050Y-58468
X104050Y-93468
X104050Y-128468
X104218Y-63902
X104218Y-98902
X104218Y-133902
X104776Y-72242
X104776Y-107242
X104776Y-142242
X104787Y-69592
X104787Y-104592
X104787Y-139592
X104910Y-59141
X104910Y-94141
X104910Y-129141
X104941Y-66056
X104941Y-101056
X104941Y-136056
X104948Y-62905
X104948Y-97905
X104948Y-132905
X106084Y-55285
X106084Y-90285
X106084Y-125285
X106153Y-72213
X106153Y-107213
X106153Y-142213
X111622Y-66121
X111622Y-101121
X111622Y-136121
X115162Y-65498
X115162Y-100498
X115162Y-135498
X116226Y-52868
X116226Y-87868
X116226Y-122868
X117833Y-72249
X117833Y-107249
X117833Y-142249
X118600Y-61691
X118600Y-96691
X118600Y-131691
X120471Y-52769
X120471Y-87769
X120471Y-122769
X120482Y-55088
X120482Y-90087
X120482Y-125088
X120810Y-62264
X120810Y-97264
X120810Y-132264
X123170Y-60623
X123170Y-95623
X123170Y-130623
X123203Y-61984
X123203Y-96983
X123203Y-131984
X123612Y-68300
X123612Y-103300
X123612Y-138300
X123818Y-63890
X123818Y-98890
X123818Y-133890
X125112Y-60041
X125112Y-95041
X125112Y-130041
X125208Y-61643
X125208Y-96643
X125208Y-131643
X126417Y-57250
X126417Y-92250
X126417Y-127250
X126492Y-58589
X126492Y-93589
X126492Y-128589
X126562Y-60289
X126562Y-95289
X126562Y-130289
X126604Y-55365
X126604Y-90365
X126604Y-125365
X127140Y-53464
X127140Y-88464
X127140Y-123464
X127894Y-67838
X127894Y-102838
X127894Y-137838
X128233Y-53464
X128233Y-88464
X128233Y-123464
X128374Y-68955
X128374Y-103955
X128374Y-138955
X129160Y-69741
X129160Y-104741
X129160Y-139741
X129266Y-53464
X129266Y-88464
X129266Y-123464
X129881Y-70462
X129881Y-105462
X129881Y-140462
X130274Y-68555
X130274Y-103555
X130274Y-138555
X131332Y-70544
X131332Y-105544
X131332Y-140544
X132750Y-70543
X132750Y-105543
X132750Y-140543
X134297Y-70560
X134297Y-105560
X134297Y-140560
X134333Y-69544
X134333Y-104544
X134333Y-139544
X137771Y-52208
X137771Y-87208
X137771Y-122208
X139000Y-70523
X139000Y-105523
X139000Y-140523
X139193Y-54785
X139193Y-89785
X139193Y-124785
X141221Y-55748
X141221Y-90748
X141221Y-125748
X141529Y-70557
X141529Y-105557
X141529Y-140557
X141718Y-57316
X141718Y-92316
X141718Y-127316
X142681Y-69966
X142681Y-104966
X142681Y-139966
X142687Y-55250
X142687Y-90250
X142687Y-125250
X143354Y-56796
X143354Y-91796
X143354Y-126796
X143406Y-69187
X143406Y-104187
X143406Y-139187
X144881Y-66101
X144881Y-101101
X144881Y-136101
X145307Y-67606
X145307Y-102606
X145307Y-137606
X146387Y-51750
X146387Y-86750
X146387Y-121750
X147536Y-68919
X147536Y-103919
X147536Y-138919
X149909Y-66715
X149909Y-101715
X149909Y-136715
X150617Y-59310
X150617Y-94310
X150617Y-129310
X150622Y-60365
X150622Y-95365
X150622Y-130365
X150937Y-53505
X150937Y-88505
X150937Y-123505
X151302Y-55691
X151302Y-90691
X151302Y-125691
X151969Y-72244
X151969Y-107244
X151969Y-142244
X152375Y-66879
X152375Y-101879
X152375Y-136879
X153750Y-72209
X153750Y-107209
X153750Y-142209
X153820Y-51259
X153820Y-86259
X153820Y-121259
X154050Y-58468
X154050Y-93468
X154050Y-128468
X154218Y-63902
X154218Y-98902
X154218Y-133902
X154776Y-72242
X154776Y-107242
X154776Y-142242
X154787Y-69592
X154787Y-104592
X154787Y-139592
X154910Y-59141
X154910Y-94141
X154910Y-129141
X154941Y-66056
X154941Y-101056
X154941Y-136056
X154948Y-62905
X154948Y-97905
X154948Y-132905
X156084Y-55285
X156084Y-90285
X156084Y-125285
X156153Y-72213
X156153Y-107213
X156153Y-142213
T0
M30
