G04 #@! TF.GenerationSoftware,KiCad,Pcbnew,(5.0.0)*
G04 #@! TF.CreationDate,2018-11-06T18:31:01+09:00*
G04 #@! TF.ProjectId,mbc1cartridge_test,6D6263316361727472696467655F7465,rev?*
G04 #@! TF.SameCoordinates,Original*
G04 #@! TF.FileFunction,Profile,NP*
%FSLAX46Y46*%
G04 Gerber Fmt 4.6, Leading zero omitted, Abs format (unit mm)*
G04 Created by KiCad (PCBNEW (5.0.0)) date 11/06/18 18:31:01*
%MOMM*%
%LPD*%
G01*
G04 APERTURE LIST*
%ADD10C,0.150000*%
%ADD11C,0.200000*%
G04 APERTURE END LIST*
D10*
X155000000Y-80000000D02*
X111000000Y-80000000D01*
X155000000Y-85000000D02*
X155000000Y-80000000D01*
X65000000Y-85000000D02*
X155000000Y-85000000D01*
X65000000Y-80000000D02*
X65000000Y-85000000D01*
X109000000Y-80000000D02*
X65000000Y-80000000D01*
X65000000Y-115000000D02*
X65000000Y-120000000D01*
X109750000Y-115000000D02*
X65000000Y-115000000D01*
X111000000Y-115000000D02*
X110250000Y-115000000D01*
X155000000Y-115000000D02*
X111000000Y-115000000D01*
X155000000Y-120000000D02*
X155000000Y-115000000D01*
X65000000Y-120000000D02*
X155000000Y-120000000D01*
X109750000Y-80000000D02*
X109000000Y-80000000D01*
X110250000Y-80000000D02*
X111000000Y-80000000D01*
X60000000Y-115000000D02*
X60000000Y-120000000D01*
X60250000Y-115000000D02*
X60000000Y-115000000D01*
X60000000Y-80000000D02*
X60000000Y-85000000D01*
X60250000Y-80000000D02*
X60000000Y-80000000D01*
X160000000Y-115000000D02*
X160000000Y-120000000D01*
X159750000Y-115000000D02*
X160000000Y-115000000D01*
X160000000Y-80000000D02*
X160000000Y-85000000D01*
X159750000Y-80000000D02*
X160000000Y-80000000D01*
X110250000Y-71250000D02*
X110000000Y-71250000D01*
X110250000Y-80000000D02*
X110250000Y-71250000D01*
D11*
X110000000Y-50000000D02*
X160000000Y-50000000D01*
D10*
X159750000Y-71250000D02*
X160000000Y-71250000D01*
X160000000Y-50000000D02*
X160000000Y-71250000D01*
X138600000Y-64650000D02*
G75*
G03X138600000Y-64650000I-3600000J0D01*
G01*
X159750000Y-80000000D02*
X159750000Y-71250000D01*
X110250000Y-106250000D02*
X110000000Y-106250000D01*
X110250000Y-115000000D02*
X110250000Y-106250000D01*
X159750000Y-106250000D02*
X160000000Y-106250000D01*
X160000000Y-85000000D02*
X160000000Y-106250000D01*
X138600000Y-99650000D02*
G75*
G03X138600000Y-99650000I-3600000J0D01*
G01*
X159750000Y-115000000D02*
X159750000Y-106250000D01*
X110250000Y-141250000D02*
X110000000Y-141250000D01*
X110250000Y-150000000D02*
X110250000Y-141250000D01*
X159750000Y-141250000D02*
X160000000Y-141250000D01*
X110250000Y-150000000D02*
X159750000Y-150000000D01*
X160000000Y-120000000D02*
X160000000Y-141250000D01*
X138600000Y-134650000D02*
G75*
G03X138600000Y-134650000I-3600000J0D01*
G01*
X159750000Y-150000000D02*
X159750000Y-141250000D01*
X60250000Y-71250000D02*
X60000000Y-71250000D01*
X60250000Y-80000000D02*
X60250000Y-71250000D01*
D11*
X60000000Y-50000000D02*
X110000000Y-50000000D01*
D10*
X109750000Y-71250000D02*
X110000000Y-71250000D01*
X60000000Y-71250000D02*
X60000000Y-50000000D01*
X88600000Y-64650000D02*
G75*
G03X88600000Y-64650000I-3600000J0D01*
G01*
X109750000Y-80000000D02*
X109750000Y-71250000D01*
X60250000Y-106250000D02*
X60000000Y-106250000D01*
X60250000Y-115000000D02*
X60250000Y-106250000D01*
X109750000Y-106250000D02*
X110000000Y-106250000D01*
X60000000Y-106250000D02*
X60000000Y-85000000D01*
X88600000Y-99650000D02*
G75*
G03X88600000Y-99650000I-3600000J0D01*
G01*
X109750000Y-115000000D02*
X109750000Y-106250000D01*
X109750000Y-141250000D02*
X110000000Y-141250000D01*
X60000000Y-141250000D02*
X60000000Y-120000000D01*
X60250000Y-141250000D02*
X60000000Y-141250000D01*
X60250000Y-150000000D02*
X60250000Y-141250000D01*
X109750000Y-150000000D02*
X109750000Y-141250000D01*
X60250000Y-150000000D02*
X109750000Y-150000000D01*
X88600000Y-134650000D02*
G75*
G03X88600000Y-134650000I-3600000J0D01*
G01*
M02*
